<svg width="1334" height="355" viewBox="0 0 1334 355" fill="none" xmlns="http://www.w3.org/2000/svg">
<g filter="url(#filter0_i_49_16)">
<g filter="url(#filter1_i_49_16)">
<path d="M4.42 228.53C4.94 222.897 6.67333 217.35 9.62 211.89C12.6533 206.43 16.0767 202.053 19.89 198.76C27.2567 203.18 35.5767 207.123 44.85 210.59C54.1233 214.057 63.3533 215.79 72.54 215.79C80.5133 215.79 86.32 213.927 89.96 210.2C93.6 206.387 95.42 202.183 95.42 197.59C95.42 194.297 94.3367 190.83 92.17 187.19C90.09 183.463 85.3667 180.083 78 177.05L46.67 163.92C35.9233 159.413 27.04 153.433 20.02 145.98C13.0867 138.527 9.62 128.647 9.62 116.34C9.62 105.68 12.3933 96.32 17.94 88.26C23.4867 80.2 30.9833 73.9167 40.43 69.41C49.9633 64.9033 60.58 62.65 72.28 62.65C84.4133 62.65 95.81 64.21 106.47 67.33C117.13 70.45 125.84 73.7867 132.6 77.34C132.253 82.9733 130.867 88.4767 128.44 93.85C126.013 99.1367 122.893 103.557 119.08 107.11C112.407 103.903 104.693 101 95.94 98.4C87.1867 95.8 79.3433 94.5 72.41 94.5C64.6967 94.5 59.0633 96.2767 55.51 99.83C52.0433 103.383 50.31 107.153 50.31 111.14C50.31 114.78 51.5233 117.987 53.95 120.76C56.4633 123.447 60.6233 126.003 66.43 128.43L98.28 141.69C106.513 145.07 113.533 149.317 119.34 154.43C125.233 159.457 129.697 165.22 132.73 171.72C135.85 178.133 137.41 185.11 137.41 192.65C137.41 203.05 134.897 212.41 129.87 220.73C124.93 229.05 117.433 235.637 107.38 240.49C97.4133 245.343 84.89 247.77 69.81 247.77C59.2367 247.77 48.0567 246.123 36.27 242.83C24.57 239.45 13.9533 234.683 4.42 228.53ZM289.287 126.22C289.287 139.653 286.557 150.92 281.097 160.02C275.723 169.12 268.27 175.967 258.737 180.56C249.29 185.153 238.457 187.45 226.237 187.45H188.017V158.2C190.443 158.027 194.083 157.853 198.937 157.68C203.79 157.507 208.557 157.377 213.237 157.29C218.003 157.117 221.297 157.03 223.117 157.03C230.31 157.03 235.727 155.383 239.367 152.09C243.007 148.71 245.477 144.637 246.777 139.87C248.077 135.017 248.727 130.467 248.727 126.22C248.727 121.973 248.077 117.51 246.777 112.83C245.477 108.063 243.007 103.99 239.367 100.61C235.727 97.23 230.31 95.54 223.117 95.54C220.343 95.54 217.483 95.54 214.537 95.54C211.59 95.4533 208.34 95.3667 204.787 95.28V244C201.58 244.607 198.113 244.997 194.387 245.17C190.747 245.343 187.583 245.43 184.897 245.43C182.47 245.43 179.35 245.343 175.537 245.17C171.723 244.997 168.213 244.607 165.007 244V67.72L166.827 66.03C177.747 65.77 187.93 65.5533 197.377 65.38C206.91 65.12 216.53 64.99 226.237 64.99C238.457 64.99 249.29 67.2 258.737 71.62C268.27 76.04 275.723 82.8 281.097 91.9C286.557 100.913 289.287 112.353 289.287 126.22ZM341.772 66.42C344.979 65.9867 348.792 65.64 353.212 65.38C357.632 65.12 361.489 64.99 364.782 64.99C367.989 64.99 371.802 65.12 376.222 65.38C380.729 65.64 384.542 66.0733 387.662 66.68L443.952 241.4C441.179 242.96 437.625 244.13 433.292 244.91C428.959 245.777 424.885 246.21 421.072 246.21C414.832 246.21 409.935 244.78 406.382 241.92C402.829 238.973 399.839 233.253 397.412 224.76L377.522 155.47C375.442 148.103 373.059 139.61 370.372 129.99C367.772 120.37 365.432 111.357 363.352 102.95H361.792C360.492 109.97 358.585 118.03 356.072 127.13C353.645 136.143 351.435 144.03 349.442 150.79L321.622 244.26C319.195 244.867 316.552 245.257 313.692 245.43C310.832 245.603 307.885 245.69 304.852 245.69C301.819 245.69 298.439 245.473 294.712 245.04C290.985 244.607 287.952 243.957 285.612 243.09L284.182 241.01L341.772 66.42ZM344.112 206.04C342.899 206.04 341.425 206.04 339.692 206.04C337.959 205.953 336.225 205.91 334.492 205.91C332.845 205.823 331.415 205.78 330.202 205.78H309.532L321.752 174.71H339.822C341.035 174.71 342.465 174.71 344.112 174.71C345.759 174.623 347.405 174.58 349.052 174.58C350.699 174.493 352.085 174.45 353.212 174.45H373.102C374.315 174.45 375.745 174.493 377.392 174.58C379.039 174.58 380.685 174.623 382.332 174.71C383.979 174.71 385.409 174.71 386.622 174.71H405.342L415.352 205.78H394.812C393.599 205.78 392.125 205.823 390.392 205.91C388.659 205.91 386.925 205.953 385.192 206.04C383.545 206.04 382.115 206.04 380.902 206.04H344.112ZM592.871 121.02C592.871 129.34 591.268 136.707 588.061 143.12C584.941 149.533 580.911 154.907 575.971 159.24C571.118 163.487 566.091 166.607 560.891 168.6C565.744 170.247 569.774 173.193 572.981 177.44C576.188 181.687 578.788 186.627 580.781 192.26L589.101 215.4C590.574 219.647 592.351 223.373 594.431 226.58C596.598 229.7 599.024 232.343 601.711 234.51C599.284 237.89 595.601 240.707 590.661 242.96C585.721 245.127 580.651 246.21 575.451 246.21C568.258 246.21 563.014 244.303 559.721 240.49C556.514 236.59 553.568 230.827 550.881 223.2L541.001 194.99C539.441 190.31 537.058 186.323 533.851 183.03C530.731 179.65 525.618 177.96 518.511 177.96H490.171V148.19C493.551 148.017 497.711 147.843 502.651 147.67C507.678 147.497 512.444 147.367 516.951 147.28C521.458 147.107 524.751 147.02 526.831 147.02C533.678 147.02 538.921 145.807 542.561 143.38C546.288 140.867 548.844 137.617 550.231 133.63C551.618 129.643 552.311 125.44 552.311 121.02C552.311 116.34 551.618 112.05 550.231 108.15C548.844 104.25 546.288 101.13 542.561 98.79C538.921 96.3633 533.678 95.15 526.831 95.15C525.011 95.15 522.974 95.15 520.721 95.15C518.468 95.15 516.128 95.15 513.701 95.15C511.274 95.0633 508.804 94.9767 506.291 94.89V244C502.998 244.607 499.574 244.997 496.021 245.17C492.468 245.343 489.304 245.43 486.531 245.43C484.104 245.43 481.028 245.343 477.301 245.17C473.574 244.997 470.108 244.607 466.901 244V67.72L468.721 66.03C479.641 65.77 490.171 65.5533 500.311 65.38C510.451 65.12 520.374 64.99 530.081 64.99C542.128 64.99 552.874 66.9833 562.321 70.97C571.768 74.87 579.221 80.98 584.681 89.3C590.141 97.5333 592.871 108.107 592.871 121.02ZM626.354 66.42C629.561 65.8133 633.071 65.4233 636.884 65.25C640.698 65.0767 643.818 64.99 646.244 64.99C648.931 64.99 652.094 65.0767 655.734 65.25C659.461 65.4233 662.928 65.8133 666.134 66.42V244C662.928 244.607 659.461 244.997 655.734 245.17C652.094 245.343 648.931 245.43 646.244 245.43C643.818 245.43 640.698 245.343 636.884 245.17C633.071 244.997 629.561 244.607 626.354 244V66.42ZM764.544 234.25C761.944 238.063 758.218 241.01 753.364 243.09C748.511 245.17 743.441 246.21 738.154 246.21C730.961 246.21 725.718 244.347 722.424 240.62C719.218 236.807 716.358 231.087 713.844 223.46L703.574 191.87C700.801 183.463 697.508 177.527 693.694 174.06C689.881 170.507 684.768 168.73 678.354 168.73C674.628 168.73 669.948 168.903 664.314 169.25C658.768 169.597 652.658 170.117 645.984 170.81V146.37H696.684C706.391 146.37 714.018 147.757 719.564 150.53C725.198 153.217 729.531 156.9 732.564 161.58C735.598 166.26 738.111 171.59 740.104 177.57L751.284 210.59C753.798 217.87 755.878 222.983 757.524 225.93C759.258 228.79 761.598 231.563 764.544 234.25ZM711.114 79.03C713.628 74.2633 716.271 70.7533 719.044 68.5C721.818 66.16 726.108 64.99 731.914 64.99C735.121 64.99 738.891 65.12 743.224 65.38C747.558 65.5533 751.674 65.8133 755.574 66.16L757.784 68.89L725.154 129.6C720.388 138.613 714.278 145.72 706.824 150.92C699.458 156.033 689.664 158.59 677.444 158.59H645.984V136.23C650.578 136.057 655.214 135.927 659.894 135.84C664.661 135.753 669.298 135.667 673.804 135.58C677.011 135.58 679.264 135.017 680.564 133.89C681.951 132.677 683.511 130.38 685.244 127L711.114 79.03ZM826.343 244.65H809.573C802.553 244.65 796.963 242.613 792.803 238.54C788.643 234.38 786.563 228.66 786.563 221.38V66.55L788.383 64.73H802.943C810.656 64.73 816.463 66.7233 820.363 70.71C824.35 74.6967 826.343 81.11 826.343 89.95V244.65ZM896.543 210.46C896.543 223.113 894.506 231.997 890.433 237.11C886.36 242.137 879.426 244.65 869.633 244.65H809.573L788.383 215.92C799.303 214.013 810.136 212.627 820.883 211.76C831.716 210.893 841.596 210.46 850.523 210.46H896.543ZM922.545 66.42C925.665 65.8133 929.132 65.4233 932.945 65.25C936.845 65.0767 940.008 64.99 942.435 64.99C945.122 64.99 948.285 65.0767 951.925 65.25C955.652 65.4233 959.118 65.8133 962.325 66.42V244C959.118 244.607 955.652 244.997 951.925 245.17C948.285 245.343 945.122 245.43 942.435 245.43C940.008 245.43 936.845 245.343 932.945 245.17C929.132 244.997 925.665 244.607 922.545 244V66.42ZM1003.15 67.07C1006.27 66.3767 1010.3 65.8567 1015.24 65.51C1020.27 65.1633 1024.08 64.99 1026.68 64.99C1029.28 64.99 1032.7 65.0767 1036.95 65.25C1041.2 65.4233 1045.44 65.8133 1049.69 66.42L1039.68 111.66L1036.95 112.44C1037.64 119.633 1038.21 127.78 1038.64 136.88C1039.07 145.893 1039.42 154.95 1039.68 164.05C1039.94 173.063 1040.07 181.123 1040.07 188.23V244C1036.86 244.607 1033.66 244.997 1030.45 245.17C1027.33 245.343 1024.51 245.43 1022 245.43C1019.66 245.43 1016.71 245.343 1013.16 245.17C1009.61 244.997 1006.27 244.607 1003.15 244V67.07ZM1052.81 148.71C1049.86 142.037 1047.13 135.537 1044.62 129.21C1042.11 122.797 1039.9 117.077 1037.99 112.05L1019.66 90.73L1049.69 66.42L1091.81 161.45C1095.1 168.99 1098.18 176.227 1101.04 183.16C1103.9 190.007 1106.33 195.857 1108.32 200.71L1128.34 222.42L1095.84 244L1052.81 148.71ZM1142.9 66.55V243.35C1139.69 244.043 1135.58 244.563 1130.55 244.91C1125.52 245.257 1121.67 245.43 1118.98 245.43C1116.29 245.43 1112.83 245.343 1108.58 245.17C1104.42 244.997 1100.17 244.607 1095.84 244L1106.37 201.1L1109.23 200.19C1108.54 192.303 1107.97 183.68 1107.54 174.32C1107.11 164.96 1106.76 155.947 1106.5 147.28C1106.33 138.527 1106.24 131.16 1106.24 125.18V88.78C1106.24 79.94 1108.02 73.7433 1111.57 70.19C1115.12 66.55 1120.71 64.73 1128.34 64.73H1141.08L1142.9 66.55ZM1318.49 81.24C1318.06 86.8733 1315.98 92.42 1312.25 97.88C1308.61 103.253 1304.76 107.24 1300.68 109.84C1294.36 105.507 1287.42 102.04 1279.88 99.44C1272.34 96.84 1264.85 95.54 1257.39 95.54C1248.55 95.54 1240.84 97.6633 1234.25 101.91C1227.67 106.07 1222.55 112.657 1218.91 121.67C1215.36 130.597 1213.58 142.253 1213.58 156.64C1213.58 177.267 1217.4 192.39 1225.02 202.01C1232.74 211.63 1243.79 216.44 1258.17 216.44C1266.67 216.44 1274.38 215.66 1281.31 214.1C1288.25 212.453 1293.88 210.937 1298.21 209.55L1319.01 236.98C1313.99 238.713 1307.96 240.403 1300.94 242.05C1293.92 243.697 1286.21 245.04 1277.8 246.08C1269.4 247.207 1260.56 247.77 1251.28 247.77C1237.85 247.77 1226.19 245.603 1216.31 241.27C1206.52 236.937 1198.42 230.783 1192 222.81C1185.59 214.75 1180.82 205.13 1177.7 193.95C1174.58 182.683 1173.02 170.16 1173.02 156.38C1173.02 140.52 1175.32 126.74 1179.91 115.04C1184.51 103.253 1190.7 93.5033 1198.5 85.79C1206.3 77.99 1215.1 72.1833 1224.89 68.37C1234.69 64.5567 1244.78 62.65 1255.18 62.65C1266.97 62.65 1278.28 64.3833 1289.11 67.85C1300.03 71.23 1309.83 75.6933 1318.49 81.24ZM1281.7 195.12C1281.7 188.967 1281.92 182.553 1282.35 175.88C1282.79 169.207 1283.78 163.097 1285.34 157.55L1319.01 168.73V236.98L1281.7 237.5V195.12ZM1292.62 144.16C1302.59 144.16 1309.48 146.457 1313.29 151.05C1317.11 155.557 1319.01 161.45 1319.01 168.73V177.31H1268.18C1264.02 177.31 1260.51 176.79 1257.65 175.75C1254.79 174.71 1252.63 172.977 1251.15 170.55C1249.77 168.123 1249.07 164.83 1249.07 160.67C1249.07 157.983 1249.33 155.167 1249.85 152.22C1250.46 149.273 1251.15 146.587 1251.93 144.16H1292.62Z" fill="#173302"/>
</g>
<g filter="url(#filter2_i_49_16)">
<path d="M1154.8 280.92C1154.67 282.653 1154.03 284.36 1152.88 286.04C1151.76 287.693 1150.57 288.92 1149.32 289.72C1147.37 288.387 1145.24 287.32 1142.92 286.52C1140.6 285.72 1138.29 285.32 1136 285.32C1133.28 285.32 1130.91 285.973 1128.88 287.28C1126.85 288.56 1125.28 290.587 1124.16 293.36C1123.07 296.107 1122.52 299.693 1122.52 304.12C1122.52 310.467 1123.69 315.12 1126.04 318.08C1128.41 321.04 1131.81 322.52 1136.24 322.52C1138.85 322.52 1141.23 322.28 1143.36 321.8C1145.49 321.293 1147.23 320.827 1148.56 320.4L1154.96 328.84C1153.41 329.373 1151.56 329.893 1149.4 330.4C1147.24 330.907 1144.87 331.32 1142.28 331.64C1139.69 331.987 1136.97 332.16 1134.12 332.16C1129.99 332.16 1126.4 331.493 1123.36 330.16C1120.35 328.827 1117.85 326.933 1115.88 324.48C1113.91 322 1112.44 319.04 1111.48 315.6C1110.52 312.133 1110.04 308.28 1110.04 304.04C1110.04 299.16 1110.75 294.92 1112.16 291.32C1113.57 287.693 1115.48 284.693 1117.88 282.32C1120.28 279.92 1122.99 278.133 1126 276.96C1129.01 275.787 1132.12 275.2 1135.32 275.2C1138.95 275.2 1142.43 275.733 1145.76 276.8C1149.12 277.84 1152.13 279.213 1154.8 280.92ZM1143.48 315.96C1143.48 314.067 1143.55 312.093 1143.68 310.04C1143.81 307.987 1144.12 306.107 1144.6 304.4L1154.96 307.84V328.84L1143.48 329V315.96ZM1146.84 300.28C1149.91 300.28 1152.03 300.987 1153.2 302.4C1154.37 303.787 1154.96 305.6 1154.96 307.84V310.48H1139.32C1138.04 310.48 1136.96 310.32 1136.08 310C1135.2 309.68 1134.53 309.147 1134.08 308.4C1133.65 307.653 1133.44 306.64 1133.44 305.36C1133.44 304.533 1133.52 303.667 1133.68 302.76C1133.87 301.853 1134.08 301.027 1134.32 300.28H1146.84ZM1198.03 319.64C1198.03 320.947 1198.23 322.147 1198.63 323.24C1199.03 324.307 1199.57 325.107 1200.27 325.64C1200.03 326.707 1199.53 327.827 1198.79 329C1198.07 330.173 1197.32 331.053 1196.55 331.64C1193.13 331.507 1190.53 330.293 1188.75 328C1186.99 325.68 1186.11 322.907 1186.11 319.68V291.12C1187.81 290.827 1189.8 290.68 1192.07 290.68C1194.23 290.68 1196.21 290.827 1198.03 291.12V319.64ZM1164.03 300.92C1164.03 299.373 1163.88 297.933 1163.59 296.6C1163.32 295.24 1162.84 294.053 1162.15 293.04C1163 292.32 1164.08 291.72 1165.39 291.24C1166.69 290.76 1168.09 290.52 1169.59 290.52C1171.96 290.52 1173.61 291.16 1174.55 292.44C1175.48 293.693 1175.95 295.507 1175.95 297.88V315.4C1175.95 317.32 1176.2 318.733 1176.71 319.64C1177.21 320.547 1178.17 321 1179.59 321C1180.49 321 1181.52 320.773 1182.67 320.32C1183.81 319.84 1184.95 319.08 1186.07 318.04C1187.21 317 1188.19 315.653 1188.99 314V324.52C1187.12 326.387 1185.05 328.053 1182.79 329.52C1180.55 330.987 1178 331.72 1175.15 331.72C1172.72 331.72 1170.68 331.12 1169.03 329.92C1167.37 328.693 1166.12 327.027 1165.27 324.92C1164.44 322.787 1164.03 320.36 1164.03 317.64V300.92ZM1205.73 320.08C1205.73 316.907 1206.47 314.307 1207.93 312.28C1209.43 310.227 1211.37 308.72 1213.77 307.76C1216.17 306.773 1218.75 306.28 1221.49 306.28C1222.75 306.28 1224.29 306.32 1226.13 306.4C1227.97 306.453 1229.63 306.627 1231.09 306.92V314.52C1229.89 314.253 1228.48 314.093 1226.85 314.04C1225.23 313.987 1223.84 313.96 1222.69 313.96C1220.83 313.96 1219.47 314.453 1218.61 315.44C1217.76 316.427 1217.33 317.707 1217.33 319.28C1217.33 320.427 1217.68 321.387 1218.37 322.16C1219.07 322.933 1220.03 323.32 1221.25 323.32C1222.91 323.32 1224.6 322.733 1226.33 321.56C1228.07 320.387 1229.52 318.747 1230.69 316.64L1232.37 324.36C1231.33 325.587 1230.13 326.8 1228.77 328C1227.44 329.173 1225.88 330.16 1224.09 330.96C1222.31 331.76 1220.23 332.16 1217.85 332.16C1215.11 332.16 1212.84 331.56 1211.05 330.36C1209.27 329.133 1207.93 327.6 1207.05 325.76C1206.17 323.893 1205.73 322 1205.73 320.08ZM1241.61 325.52C1241.37 326.587 1240.88 327.733 1240.13 328.96C1239.41 330.16 1238.67 331.053 1237.89 331.64C1235.63 331.56 1233.76 331.013 1232.29 330C1230.85 328.987 1229.75 327.76 1228.97 326.32C1228.2 324.853 1227.71 323.413 1227.49 322V304.8C1227.49 302.987 1227.04 301.64 1226.13 300.76C1225.25 299.88 1223.89 299.44 1222.05 299.44C1220.29 299.44 1218.39 299.72 1216.33 300.28C1214.31 300.813 1212.25 301.4 1210.17 302.04C1209.32 301.08 1208.64 299.827 1208.13 298.28C1207.65 296.733 1207.35 295.227 1207.21 293.76C1208.97 293.04 1210.92 292.413 1213.05 291.88C1215.21 291.347 1217.36 290.933 1219.49 290.64C1221.63 290.347 1223.56 290.2 1225.29 290.2C1227.67 290.2 1229.92 290.64 1232.05 291.52C1234.21 292.4 1235.97 293.84 1237.33 295.84C1238.69 297.813 1239.37 300.467 1239.37 303.8V320.08C1239.37 321.307 1239.55 322.373 1239.89 323.28C1240.24 324.16 1240.81 324.907 1241.61 325.52ZM1270.21 291.2C1270.91 291.04 1271.61 290.92 1272.33 290.84C1273.08 290.76 1273.81 290.72 1274.53 290.72C1275.55 290.72 1276.6 290.787 1277.69 290.92C1278.79 291.053 1279.79 291.307 1280.69 291.68L1281.05 292.2C1280.23 295.107 1279.32 298.333 1278.33 301.88C1277.35 305.4 1276.33 308.96 1275.29 312.56C1274.25 316.16 1273.25 319.56 1272.29 322.76C1271.36 325.96 1270.53 328.707 1269.81 331C1268.51 331.16 1267.07 331.28 1265.49 331.36C1263.95 331.44 1262.41 331.48 1260.89 331.48C1258.63 331.48 1256.85 331.12 1255.57 330.4C1254.29 329.653 1253.31 328.08 1252.61 325.68L1242.85 292.08C1243.92 291.6 1245.04 291.213 1246.21 290.92C1247.39 290.6 1248.47 290.44 1249.45 290.44C1251.32 290.44 1252.8 290.853 1253.89 291.68C1255.01 292.48 1255.81 293.907 1256.29 295.96L1260.13 311.24C1260.43 312.307 1260.69 313.467 1260.93 314.72C1261.17 315.947 1261.39 317.133 1261.57 318.28C1261.79 319.427 1261.96 320.413 1262.09 321.24C1262.15 321.667 1262.41 321.88 1262.89 321.88L1270.21 291.2ZM1283.39 320.08C1283.39 316.907 1284.12 314.307 1285.59 312.28C1287.08 310.227 1289.03 308.72 1291.43 307.76C1293.83 306.773 1296.4 306.28 1299.15 306.28C1300.4 306.28 1301.95 306.32 1303.79 306.4C1305.63 306.453 1307.28 306.627 1308.75 306.92V314.52C1307.55 314.253 1306.13 314.093 1304.51 314.04C1302.88 313.987 1301.49 313.96 1300.35 313.96C1298.48 313.96 1297.12 314.453 1296.27 315.44C1295.41 316.427 1294.99 317.707 1294.99 319.28C1294.99 320.427 1295.33 321.387 1296.03 322.16C1296.72 322.933 1297.68 323.32 1298.91 323.32C1300.56 323.32 1302.25 322.733 1303.99 321.56C1305.72 320.387 1307.17 318.747 1308.35 316.64L1310.03 324.36C1308.99 325.587 1307.79 326.8 1306.43 328C1305.09 329.173 1303.53 330.16 1301.75 330.96C1299.96 331.76 1297.88 332.16 1295.51 332.16C1292.76 332.16 1290.49 331.56 1288.71 330.36C1286.92 329.133 1285.59 327.6 1284.71 325.76C1283.83 323.893 1283.39 322 1283.39 320.08ZM1319.27 325.52C1319.03 326.587 1318.53 327.733 1317.79 328.96C1317.07 330.16 1316.32 331.053 1315.55 331.64C1313.28 331.56 1311.41 331.013 1309.95 330C1308.51 328.987 1307.4 327.76 1306.63 326.32C1305.85 324.853 1305.36 323.413 1305.15 322V304.8C1305.15 302.987 1304.69 301.64 1303.79 300.76C1302.91 299.88 1301.55 299.44 1299.71 299.44C1297.95 299.44 1296.04 299.72 1293.99 300.28C1291.96 300.813 1289.91 301.4 1287.83 302.04C1286.97 301.08 1286.29 299.827 1285.79 298.28C1285.31 296.733 1285 295.227 1284.87 293.76C1286.63 293.04 1288.57 292.413 1290.71 291.88C1292.87 291.347 1295.01 290.933 1297.15 290.64C1299.28 290.347 1301.21 290.2 1302.95 290.2C1305.32 290.2 1307.57 290.64 1309.71 291.52C1311.87 292.4 1313.63 293.84 1314.99 295.84C1316.35 297.813 1317.03 300.467 1317.03 303.8V320.08C1317.03 321.307 1317.2 322.373 1317.55 323.28C1317.89 324.16 1318.47 324.907 1319.27 325.52Z" fill="#173302"/>
</g>
</g>
<defs>
<filter id="filter0_i_49_16" x="4.42004" y="62.6499" width="1314.85" height="273.51" filterUnits="userSpaceOnUse" color-interpolation-filters="sRGB">
<feFlood flood-opacity="0" result="BackgroundImageFix"/>
<feBlend mode="normal" in="SourceGraphic" in2="BackgroundImageFix" result="shape"/>
<feColorMatrix in="SourceAlpha" type="matrix" values="0 0 0 0 0 0 0 0 0 0 0 0 0 0 0 0 0 0 127 0" result="hardAlpha"/>
<feOffset dy="4"/>
<feGaussianBlur stdDeviation="2"/>
<feComposite in2="hardAlpha" operator="arithmetic" k2="-1" k3="1"/>
<feColorMatrix type="matrix" values="0 0 0 0 0 0 0 0 0 0 0 0 0 0 0 0 0 0 0.25 0"/>
<feBlend mode="normal" in2="shape" result="effect1_innerShadow_49_16"/>
</filter>
<filter id="filter1_i_49_16" x="4.42004" y="62.6499" width="1314.59" height="189.12" filterUnits="userSpaceOnUse" color-interpolation-filters="sRGB">
<feFlood flood-opacity="0" result="BackgroundImageFix"/>
<feBlend mode="normal" in="SourceGraphic" in2="BackgroundImageFix" result="shape"/>
<feColorMatrix in="SourceAlpha" type="matrix" values="0 0 0 0 0 0 0 0 0 0 0 0 0 0 0 0 0 0 127 0" result="hardAlpha"/>
<feOffset dy="4"/>
<feGaussianBlur stdDeviation="2"/>
<feComposite in2="hardAlpha" operator="arithmetic" k2="-1" k3="1"/>
<feColorMatrix type="matrix" values="0 0 0 0 0 0 0 0 0 0 0 0 0 0 0 0 0 0 0.25 0"/>
<feBlend mode="normal" in2="shape" result="effect1_innerShadow_49_16"/>
</filter>
<filter id="filter2_i_49_16" x="1110.04" y="275.2" width="209.228" height="60.96" filterUnits="userSpaceOnUse" color-interpolation-filters="sRGB">
<feFlood flood-opacity="0" result="BackgroundImageFix"/>
<feBlend mode="normal" in="SourceGraphic" in2="BackgroundImageFix" result="shape"/>
<feColorMatrix in="SourceAlpha" type="matrix" values="0 0 0 0 0 0 0 0 0 0 0 0 0 0 0 0 0 0 127 0" result="hardAlpha"/>
<feOffset dy="4"/>
<feGaussianBlur stdDeviation="2"/>
<feComposite in2="hardAlpha" operator="arithmetic" k2="-1" k3="1"/>
<feColorMatrix type="matrix" values="0 0 0 0 0 0 0 0 0 0 0 0 0 0 0 0 0 0 0.25 0"/>
<feBlend mode="normal" in2="shape" result="effect1_innerShadow_49_16"/>
</filter>
</defs>
</svg>
