<svg width="1282" height="306" viewBox="0 0 1282 306" fill="none" xmlns="http://www.w3.org/2000/svg">
<g filter="url(#filter0_i_60_65)">
<path d="M16.38 153.91C20.02 156.077 23.8767 157.94 27.95 159.5C32.0233 161.06 36.1833 161.84 40.43 161.84C49.9633 161.84 56.3333 158.937 59.54 153.13C62.7467 147.323 64.35 139.047 64.35 128.3V14.42C67.47 13.8133 70.9367 13.4233 74.75 13.25C78.65 13.0767 81.8133 12.99 84.24 12.99C86.9267 12.99 90.09 13.0767 93.73 13.25C97.37 13.4233 100.837 13.8133 104.13 14.42V124.4C104.13 134.54 103.263 143.9 101.53 152.48C99.8833 160.973 96.8933 168.383 92.56 174.71C88.2267 180.95 82.2033 185.847 74.49 189.4C66.7767 192.867 56.8533 194.6 44.72 194.6C37.8733 194.6 30.68 193.647 23.14 191.74C15.6 189.833 8.75333 187.017 2.6 183.29C3.38 178.177 4.94 173.02 7.28 167.82C9.70667 162.533 12.74 157.897 16.38 153.91ZM247.591 155.08C247.591 159.327 248.241 163.227 249.541 166.78C250.841 170.247 252.618 172.847 254.871 174.58C254.091 178.047 252.488 181.687 250.061 185.5C247.721 189.313 245.294 192.173 242.781 194.08C231.688 193.647 223.238 189.703 217.431 182.25C211.711 174.71 208.851 165.697 208.851 155.21V62.39C214.398 61.4367 220.854 60.96 228.221 60.96C235.241 60.96 241.698 61.4367 247.591 62.39V155.08ZM137.091 94.24C137.091 89.2133 136.614 84.5333 135.661 80.2C134.794 75.78 133.234 71.9233 130.981 68.63C133.754 66.29 137.264 64.34 141.511 62.78C145.758 61.22 150.308 60.44 155.161 60.44C162.874 60.44 168.248 62.52 171.281 66.68C174.314 70.7533 175.831 76.6467 175.831 84.36V141.3C175.831 147.54 176.654 152.133 178.301 155.08C179.948 158.027 183.068 159.5 187.661 159.5C190.608 159.5 193.944 158.763 197.671 157.29C201.398 155.73 205.081 153.26 208.721 149.88C212.448 146.5 215.611 142.123 218.211 136.75V170.94C212.144 177.007 205.428 182.423 198.061 187.19C190.781 191.957 182.504 194.34 173.231 194.34C165.344 194.34 158.714 192.39 153.341 188.49C147.968 184.503 143.894 179.087 141.121 172.24C138.434 165.307 137.091 157.42 137.091 148.58V94.24ZM324.773 192C319.053 192.953 312.596 193.43 305.403 193.43C298.383 193.43 291.926 192.953 286.033 192V104.64C286.033 100.307 285.123 96.7533 283.303 93.98C281.569 91.2067 278.406 89.82 273.813 89.82H270.173C269.046 85.5733 268.483 81.1967 268.483 76.69C268.483 74.5233 268.613 72.2267 268.873 69.8C269.133 67.2867 269.566 64.9033 270.173 62.65C273.986 62.2167 277.886 61.9133 281.873 61.74C285.946 61.48 289.326 61.35 292.013 61.35H297.472C305.793 61.35 312.423 64.08 317.363 69.54C322.303 74.9133 324.773 82.1933 324.773 91.38V192ZM278.103 26.12C278.103 20.92 279.099 16.0667 281.093 11.56C283.259 10.4333 286.033 9.47999 289.413 8.69999C292.879 7.91999 296.303 7.53 299.683 7.53C302.976 7.53 306.399 7.91999 309.953 8.69999C313.593 9.47999 316.366 10.4333 318.273 11.56C319.226 13.7267 319.963 16.1533 320.483 18.84C321.003 21.44 321.263 23.8667 321.263 26.12C321.263 31.2333 320.266 36.13 318.273 40.81C316.366 41.9367 313.593 42.89 309.953 43.67C306.399 44.3633 302.976 44.71 299.683 44.71C296.303 44.71 292.836 44.3633 289.283 43.67C285.729 42.89 282.999 41.9367 281.093 40.81C279.099 36.13 278.103 31.2333 278.103 26.12ZM422.252 118.94C422.339 112.353 421.992 106.72 421.212 102.04C420.519 97.36 419.002 93.7633 416.662 91.25C414.322 88.7367 410.769 87.48 406.002 87.48C399.676 87.48 395.169 90.6867 392.482 97.1C389.882 103.513 388.582 113.697 388.582 127.65C388.582 141.603 390.576 151.397 394.562 157.03C398.636 162.663 404.486 165.48 412.112 165.48C417.312 165.48 422.382 164.353 427.322 162.1C432.349 159.76 436.942 157.117 441.102 154.17C444.222 155.99 447.212 159.11 450.072 163.53C453.019 167.95 454.926 172.11 455.792 176.01C450.072 181.99 442.706 186.8 433.692 190.44C424.679 193.993 415.406 195.77 405.872 195.77C396.512 195.77 388.279 194.167 381.172 190.96C374.066 187.667 368.129 183.03 363.362 177.05C358.682 170.983 355.129 163.79 352.702 155.47C350.276 147.063 349.062 137.79 349.062 127.65C349.062 110.923 351.879 97.5333 357.512 87.48C363.232 77.34 370.512 70.0167 379.352 65.51C388.192 60.9167 397.336 58.62 406.782 58.62C414.149 58.62 420.909 59.7033 427.062 61.87C433.216 63.95 438.502 66.8967 442.922 70.71C447.429 74.5233 450.896 79.03 453.322 84.23C455.749 89.43 456.962 95.1067 456.962 101.26C456.962 107.76 455.186 112.57 451.632 115.69C448.079 118.81 443.486 120.37 437.852 120.37C434.646 120.37 431.829 120.24 429.402 119.98C427.062 119.72 424.679 119.373 422.252 118.94ZM494.875 139.74V112.96H545.965V109.97C545.965 105.637 545.359 101.693 544.145 98.14C542.932 94.5867 540.982 91.7267 538.295 89.56C535.609 87.3933 532.055 86.31 527.635 86.31C520.962 86.31 516.195 89.0833 513.335 94.63C510.562 100.09 509.175 108.367 509.175 119.46V131.16C509.175 137.4 509.739 143.163 510.865 148.45C511.992 153.737 514.289 158.027 517.755 161.32C521.309 164.527 526.639 166.13 533.745 166.13C539.639 166.13 545.445 165.35 551.165 163.79C556.972 162.143 562.519 160.193 567.805 157.94C570.665 160.8 572.962 164.397 574.695 168.73C576.429 173.063 577.599 177.137 578.205 180.95C571.705 185.717 563.905 189.4 554.805 192C545.792 194.513 536.692 195.77 527.505 195.77C516.239 195.77 506.879 193.907 499.425 190.18C492.059 186.367 486.209 181.253 481.875 174.84C477.629 168.427 474.595 161.19 472.775 153.13C471.042 145.07 470.175 136.707 470.175 128.04C470.175 114.953 472.169 103.21 476.155 92.81C480.142 82.3233 486.339 74.0033 494.745 67.85C503.239 61.6967 514.245 58.62 527.765 58.62C539.205 58.62 548.912 61.0467 556.885 65.9C564.945 70.7533 571.099 77.34 575.345 85.66C579.592 93.98 581.715 103.383 581.715 113.87C581.715 119.417 581.455 124.053 580.935 127.78C580.502 131.507 579.679 135.493 578.465 139.74H494.875ZM810.853 103.08C810.853 113.22 810.159 122.97 808.773 132.33C807.386 141.69 804.613 150.443 800.453 158.59C796.379 166.737 790.226 174.017 781.993 180.43C778.006 183.55 773.196 186.063 767.563 187.97C762.016 189.877 756.339 191.263 750.533 192.13C744.726 192.997 739.396 193.43 734.543 193.43C727.176 193.43 719.983 193.387 712.963 193.3C706.029 193.213 699.053 193.083 692.033 192.91C685.099 192.737 677.863 192.563 670.323 192.39L668.503 190.7V15.72L670.323 14.03C677.776 13.77 684.969 13.5533 691.903 13.38C698.923 13.2067 705.943 13.12 712.963 13.12C719.983 13.0333 727.176 12.99 734.543 12.99C739.396 12.99 744.726 13.4233 750.533 14.29C756.426 15.1567 762.146 16.5433 767.693 18.45C773.326 20.3567 778.093 22.87 781.993 25.99C790.139 32.4033 796.249 39.6833 800.323 47.83C804.483 55.9767 807.256 64.73 808.643 74.09C810.116 83.3633 810.853 93.0267 810.853 103.08ZM770.163 103.08C770.163 96.32 769.729 89.4733 768.863 82.54C768.083 75.6067 766.479 69.2367 764.053 63.43C761.626 57.5367 758.029 52.8133 753.263 49.26C748.583 45.7067 742.343 43.93 734.543 43.93C730.036 43.93 725.703 43.93 721.543 43.93C717.383 43.8433 712.876 43.7567 708.023 43.67V162.62C712.876 162.533 717.383 162.49 721.543 162.49C725.703 162.49 730.036 162.49 734.543 162.49C742.343 162.49 748.583 160.713 753.263 157.16C758.029 153.52 761.626 148.797 764.053 142.99C766.479 137.097 768.083 130.683 768.863 123.75C769.729 116.73 770.163 109.84 770.163 103.08ZM922.669 62.78C922.669 67.3733 921.889 73.2233 920.329 80.33C918.769 87.35 916.342 93.5467 913.049 98.92C910.882 98.14 908.716 97.62 906.549 97.36C904.469 97.0133 902.302 96.71 900.049 96.45C896.409 96.45 893.116 97.1433 890.169 98.53C887.309 99.9167 884.709 101.867 882.369 104.38C880.116 106.893 877.992 109.97 875.999 113.61C874.092 117.163 872.272 121.15 870.539 125.57L865.989 119.72C866.422 112.7 867.332 105.723 868.719 98.79C870.192 91.77 872.359 85.4 875.219 79.68C878.166 73.8733 882.109 69.2367 887.049 65.77C892.076 62.3033 898.402 60.57 906.029 60.57C909.756 60.57 912.832 60.7867 915.259 61.22C917.686 61.5667 920.156 62.0867 922.669 62.78ZM829.329 80.33C830.109 76.8633 831.712 73.1367 834.139 69.15C836.566 65.1633 838.992 62.2167 841.419 60.31C852.946 61.4367 861.612 65.9 867.419 73.7C873.312 81.5 876.822 91.7267 877.949 104.38V192C872.229 192.953 865.772 193.43 858.579 193.43C851.559 193.43 845.102 192.953 839.209 192V107.37C839.209 99.7433 838.082 93.7633 835.829 89.43C833.662 85.01 831.496 81.9767 829.329 80.33ZM988.737 192C983.017 192.953 976.561 193.43 969.367 193.43C962.347 193.43 955.891 192.953 949.997 192V104.64C949.997 100.307 949.087 96.7533 947.267 93.98C945.534 91.2067 942.371 89.82 937.777 89.82H934.137C933.011 85.5733 932.447 81.1967 932.447 76.69C932.447 74.5233 932.577 72.2267 932.837 69.8C933.097 67.2867 933.531 64.9033 934.137 62.65C937.951 62.2167 941.851 61.9133 945.837 61.74C949.911 61.48 953.291 61.35 955.977 61.35H961.437C969.757 61.35 976.387 64.08 981.327 69.54C986.267 74.9133 988.737 82.1933 988.737 91.38V192ZM942.067 26.12C942.067 20.92 943.064 16.0667 945.057 11.56C947.224 10.4333 949.997 9.47999 953.377 8.69999C956.844 7.91999 960.267 7.53 963.647 7.53C966.941 7.53 970.364 7.91999 973.917 8.69999C977.557 9.47999 980.331 10.4333 982.237 11.56C983.191 13.7267 983.927 16.1533 984.447 18.84C984.967 21.44 985.227 23.8667 985.227 26.12C985.227 31.2333 984.231 36.13 982.237 40.81C980.331 41.9367 977.557 42.89 973.917 43.67C970.364 44.3633 966.941 44.71 963.647 44.71C960.267 44.71 956.801 44.3633 953.247 43.67C949.694 42.89 946.964 41.9367 945.057 40.81C943.064 36.13 942.067 31.2333 942.067 26.12ZM1037.34 60.7C1044.79 60.7 1050.38 63.2133 1054.11 68.24C1057.83 73.2667 1059.7 80.1133 1059.7 88.78V192C1053.98 192.953 1047.52 193.43 1040.33 193.43C1033.31 193.43 1026.81 192.953 1020.83 192V62.52L1022.65 60.7H1037.34ZM1131.33 160.15C1131.33 165.177 1131.8 169.9 1132.76 174.32C1133.71 178.653 1135.31 182.467 1137.57 185.76C1134.71 188.1 1131.15 190.05 1126.91 191.61C1122.75 193.17 1118.24 193.95 1113.39 193.95C1105.59 193.95 1100.17 191.913 1097.14 187.84C1094.1 183.68 1092.59 177.743 1092.59 170.03V113.09C1092.59 106.85 1091.76 102.257 1090.12 99.31C1088.47 96.3633 1085.35 94.89 1080.76 94.89C1077.9 94.89 1074.56 95.67 1070.75 97.23C1067.02 98.7033 1063.34 101.13 1059.7 104.51C1056.14 107.803 1053.02 112.18 1050.34 117.64V83.45C1056.4 77.3833 1063.08 71.9667 1070.36 67.2C1077.72 62.4333 1086 60.05 1095.19 60.05C1103.16 60.05 1109.83 62.0433 1115.21 66.03C1120.58 69.93 1124.61 75.3033 1127.3 82.15C1129.98 88.9967 1131.33 96.8833 1131.33 105.81V160.15ZM1200.84 192C1195.3 192.953 1188.93 193.43 1181.73 193.43C1175.23 193.43 1168.99 192.953 1163.01 192V2.45999L1164.83 0.639984H1179.91C1187.63 0.639984 1193.04 2.41665 1196.16 5.96999C1199.28 9.43666 1200.84 15.5033 1200.84 24.17V192ZM1267.4 160.15C1269.48 166.65 1271.39 171.46 1273.12 174.58C1274.94 177.613 1277.2 180.083 1279.88 181.99C1276.85 185.37 1272.99 188.23 1268.31 190.57C1263.63 192.823 1258.82 193.95 1253.88 193.95C1248.16 193.95 1243.87 192.607 1241.01 189.92C1238.24 187.233 1235.77 182.727 1233.6 176.4L1225.54 153.39C1223.64 147.757 1221.47 144.03 1219.04 142.21C1216.62 140.39 1213.45 139.48 1209.55 139.48C1206 139.48 1202.84 139.61 1200.06 139.87C1197.38 140.13 1194.56 140.477 1191.61 140.91L1181.34 142.08V115.3H1221.25C1230.7 115.3 1238.85 117.293 1245.69 121.28C1252.54 125.267 1257.52 131.723 1260.64 140.65L1267.4 160.15ZM1251.67 103.6C1247.77 111.053 1242.23 116.643 1235.03 120.37C1227.93 124.01 1219 125.83 1208.25 125.83H1185.89V108.02L1205.65 107.63C1207.47 107.63 1208.86 107.37 1209.81 106.85C1210.85 106.243 1211.85 105.03 1212.8 103.21L1227.62 75.78C1230.05 71.0133 1233 67.4167 1236.46 64.99C1239.93 62.5633 1244.31 61.35 1249.59 61.35C1253.67 61.35 1257.39 61.3933 1260.77 61.48C1264.15 61.5667 1267.62 61.6967 1271.17 61.87L1272.73 63.95L1251.67 103.6Z" fill="#004A5C"/>
</g>
<g filter="url(#filter1_i_60_65)">
<path d="M1002.84 237.52C1002.65 236.613 1002.52 235.72 1002.44 234.84C1002.39 233.96 1002.36 233.173 1002.36 232.48C1002.36 231.787 1002.39 230.987 1002.44 230.08C1002.52 229.173 1002.65 228.267 1002.84 227.36H1042.04C1042.44 228.747 1042.64 230.307 1042.64 232.04C1042.64 234.04 1042.12 235.453 1041.08 236.28C1040.04 237.107 1038.41 237.52 1036.2 237.52H1033.48C1032.89 237.52 1032.05 237.507 1030.96 237.48C1029.89 237.453 1029.07 237.44 1028.48 237.44H1016.24C1015.65 237.44 1014.83 237.453 1013.76 237.48C1012.69 237.507 1011.85 237.52 1011.24 237.52H1002.84ZM1016.24 243.36C1016.24 242.267 1016.25 241.293 1016.28 240.44C1016.31 239.56 1016.32 238.56 1016.32 237.44V232.4H1028.4V237.44C1028.4 238.56 1028.41 239.56 1028.44 240.44C1028.47 241.293 1028.48 242.267 1028.48 243.36V282C1027.44 282.187 1026.37 282.307 1025.28 282.36C1024.19 282.413 1023.21 282.44 1022.36 282.44C1021.53 282.44 1020.56 282.413 1019.44 282.36C1018.35 282.307 1017.28 282.187 1016.24 282V243.36ZM1070.2 242.24C1070.2 243.653 1069.96 245.453 1069.48 247.64C1069 249.8 1068.25 251.707 1067.24 253.36C1066.57 253.12 1065.9 252.96 1065.24 252.88C1064.6 252.773 1063.93 252.68 1063.24 252.6C1062.12 252.6 1061.1 252.813 1060.2 253.24C1059.32 253.667 1058.52 254.267 1057.8 255.04C1057.1 255.813 1056.45 256.76 1055.84 257.88C1055.25 258.973 1054.69 260.2 1054.16 261.56L1052.76 259.76C1052.89 257.6 1053.17 255.453 1053.6 253.32C1054.05 251.16 1054.72 249.2 1055.6 247.44C1056.5 245.653 1057.72 244.227 1059.24 243.16C1060.78 242.093 1062.73 241.56 1065.08 241.56C1066.22 241.56 1067.17 241.627 1067.92 241.76C1068.66 241.867 1069.42 242.027 1070.2 242.24ZM1041.48 247.64C1041.72 246.573 1042.21 245.427 1042.96 244.2C1043.7 242.973 1044.45 242.067 1045.2 241.48C1048.74 241.827 1051.41 243.2 1053.2 245.6C1055.01 248 1056.09 251.147 1056.44 255.04V282C1054.68 282.293 1052.69 282.44 1050.48 282.44C1048.32 282.44 1046.33 282.293 1044.52 282V255.96C1044.52 253.613 1044.17 251.773 1043.48 250.44C1042.81 249.08 1042.14 248.147 1041.48 247.64ZM1108.19 262.08C1108.19 266.32 1107.5 270.027 1106.11 273.2C1104.72 276.347 1102.67 278.8 1099.95 280.56C1097.23 282.293 1093.87 283.16 1089.87 283.16C1085.87 283.16 1082.51 282.28 1079.79 280.52C1077.07 278.76 1075.02 276.307 1073.63 273.16C1072.27 269.987 1071.59 266.293 1071.59 262.08C1071.59 257.813 1072.28 254.107 1073.67 250.96C1075.06 247.787 1077.11 245.333 1079.83 243.6C1082.55 241.84 1085.9 240.96 1089.87 240.96C1093.9 240.96 1097.27 241.84 1099.99 243.6C1102.71 245.36 1104.75 247.827 1106.11 251C1107.5 254.147 1108.19 257.84 1108.19 262.08ZM1083.83 262.08C1083.83 264.32 1083.98 266.36 1084.27 268.2C1084.56 270.04 1085.14 271.507 1085.99 272.6C1086.87 273.693 1088.18 274.24 1089.91 274.24C1091.64 274.24 1092.94 273.693 1093.79 272.6C1094.64 271.507 1095.22 270.04 1095.51 268.2C1095.8 266.36 1095.95 264.32 1095.95 262.08C1095.95 259.84 1095.8 257.8 1095.51 255.96C1095.22 254.093 1094.64 252.613 1093.79 251.52C1092.94 250.427 1091.64 249.88 1089.91 249.88C1088.18 249.88 1086.87 250.427 1085.99 251.52C1085.14 252.613 1084.56 254.093 1084.27 255.96C1083.98 257.8 1083.83 259.84 1083.83 262.08ZM1119.47 241.6C1121.92 241.6 1123.86 242.493 1125.27 244.28C1126.71 246.067 1127.43 248.507 1127.43 251.6V292.04C1127.43 294.707 1126.94 296.573 1125.95 297.64C1124.96 298.733 1123.28 299.28 1120.91 299.28H1116.27L1115.71 298.72V242.16L1116.27 241.6H1119.47ZM1151.03 261.6C1151.03 266.187 1150.3 270.053 1148.83 273.2C1147.39 276.347 1145.46 278.733 1143.03 280.36C1140.6 281.96 1137.95 282.76 1135.07 282.76C1132.32 282.76 1129.88 282.2 1127.75 281.08C1125.62 279.933 1123.64 278.8 1121.83 277.68L1123.71 269.16C1125.26 270.413 1126.84 271.507 1128.47 272.44C1130.12 273.373 1131.64 273.84 1133.03 273.84C1134.34 273.84 1135.42 273.347 1136.27 272.36C1137.12 271.373 1137.75 269.96 1138.15 268.12C1138.58 266.28 1138.79 264.08 1138.79 261.52C1138.79 258.933 1138.56 256.84 1138.11 255.24C1137.66 253.64 1137.04 252.467 1136.27 251.72C1135.52 250.947 1134.66 250.56 1133.67 250.56C1132.76 250.56 1131.71 250.827 1130.51 251.36C1129.34 251.893 1128.2 252.893 1127.11 254.36C1126.02 255.827 1125.11 257.947 1124.39 260.72L1121.75 253.76C1122.04 251.653 1122.88 249.627 1124.27 247.68C1125.66 245.707 1127.43 244.093 1129.59 242.84C1131.75 241.587 1134.12 240.96 1136.71 240.96C1139.94 240.96 1142.6 241.84 1144.71 243.6C1146.84 245.36 1148.43 247.787 1149.47 250.88C1150.51 253.973 1151.03 257.547 1151.03 261.6ZM1172.4 282C1170.64 282.293 1168.65 282.44 1166.44 282.44C1164.28 282.44 1162.29 282.293 1160.48 282V255.12C1160.48 253.787 1160.2 252.693 1159.64 251.84C1159.11 250.987 1158.13 250.56 1156.72 250.56H1155.6C1155.25 249.253 1155.08 247.907 1155.08 246.52C1155.08 245.853 1155.12 245.147 1155.2 244.4C1155.28 243.627 1155.41 242.893 1155.6 242.2C1156.77 242.067 1157.97 241.973 1159.2 241.92C1160.45 241.84 1161.49 241.8 1162.32 241.8H1164C1166.56 241.8 1168.6 242.64 1170.12 244.32C1171.64 245.973 1172.4 248.213 1172.4 251.04V282ZM1158.04 230.96C1158.04 229.36 1158.35 227.867 1158.96 226.48C1159.63 226.133 1160.48 225.84 1161.52 225.6C1162.59 225.36 1163.64 225.24 1164.68 225.24C1165.69 225.24 1166.75 225.36 1167.84 225.6C1168.96 225.84 1169.81 226.133 1170.4 226.48C1170.69 227.147 1170.92 227.893 1171.08 228.72C1171.24 229.52 1171.32 230.267 1171.32 230.96C1171.32 232.533 1171.01 234.04 1170.4 235.48C1169.81 235.827 1168.96 236.12 1167.84 236.36C1166.75 236.573 1165.69 236.68 1164.68 236.68C1163.64 236.68 1162.57 236.573 1161.48 236.36C1160.39 236.12 1159.55 235.827 1158.96 235.48C1158.35 234.04 1158.04 232.533 1158.04 230.96ZM1202.39 259.52C1202.42 257.493 1202.31 255.76 1202.07 254.32C1201.86 252.88 1201.39 251.773 1200.67 251C1199.95 250.227 1198.86 249.84 1197.39 249.84C1195.45 249.84 1194.06 250.827 1193.23 252.8C1192.43 254.773 1192.03 257.907 1192.03 262.2C1192.03 266.493 1192.65 269.507 1193.87 271.24C1195.13 272.973 1196.93 273.84 1199.27 273.84C1200.87 273.84 1202.43 273.493 1203.95 272.8C1205.5 272.08 1206.91 271.267 1208.19 270.36C1209.15 270.92 1210.07 271.88 1210.95 273.24C1211.86 274.6 1212.45 275.88 1212.71 277.08C1210.95 278.92 1208.69 280.4 1205.91 281.52C1203.14 282.613 1200.29 283.16 1197.35 283.16C1194.47 283.16 1191.94 282.667 1189.75 281.68C1187.57 280.667 1185.74 279.24 1184.27 277.4C1182.83 275.533 1181.74 273.32 1180.99 270.76C1180.25 268.173 1179.87 265.32 1179.87 262.2C1179.87 257.053 1180.74 252.933 1182.47 249.84C1184.23 246.72 1186.47 244.467 1189.19 243.08C1191.91 241.667 1194.73 240.96 1197.63 240.96C1199.9 240.96 1201.98 241.293 1203.87 241.96C1205.77 242.6 1207.39 243.507 1208.75 244.68C1210.14 245.853 1211.21 247.24 1211.95 248.84C1212.7 250.44 1213.07 252.187 1213.07 254.08C1213.07 256.08 1212.53 257.56 1211.43 258.52C1210.34 259.48 1208.93 259.96 1207.19 259.96C1206.21 259.96 1205.34 259.92 1204.59 259.84C1203.87 259.76 1203.14 259.653 1202.39 259.52ZM1217.76 271.08C1217.76 267.907 1218.5 265.307 1219.96 263.28C1221.46 261.227 1223.4 259.72 1225.8 258.76C1228.2 257.773 1230.78 257.28 1233.52 257.28C1234.78 257.28 1236.32 257.32 1238.16 257.4C1240 257.453 1241.66 257.627 1243.12 257.92V265.52C1241.92 265.253 1240.51 265.093 1238.88 265.04C1237.26 264.987 1235.87 264.96 1234.72 264.96C1232.86 264.96 1231.5 265.453 1230.64 266.44C1229.79 267.427 1229.36 268.707 1229.36 270.28C1229.36 271.427 1229.71 272.387 1230.4 273.16C1231.1 273.933 1232.06 274.32 1233.28 274.32C1234.94 274.32 1236.63 273.733 1238.36 272.56C1240.1 271.387 1241.55 269.747 1242.72 267.64L1244.4 275.36C1243.36 276.587 1242.16 277.8 1240.8 279C1239.47 280.173 1237.91 281.16 1236.12 281.96C1234.34 282.76 1232.26 283.16 1229.88 283.16C1227.14 283.16 1224.87 282.56 1223.08 281.36C1221.3 280.133 1219.96 278.6 1219.08 276.76C1218.2 274.893 1217.76 273 1217.76 271.08ZM1253.64 276.52C1253.4 277.587 1252.91 278.733 1252.16 279.96C1251.44 281.16 1250.7 282.053 1249.92 282.64C1247.66 282.56 1245.79 282.013 1244.32 281C1242.88 279.987 1241.78 278.76 1241 277.32C1240.23 275.853 1239.74 274.413 1239.52 273V255.8C1239.52 253.987 1239.07 252.64 1238.16 251.76C1237.28 250.88 1235.92 250.44 1234.08 250.44C1232.32 250.44 1230.42 250.72 1228.36 251.28C1226.34 251.813 1224.28 252.4 1222.2 253.04C1221.35 252.08 1220.67 250.827 1220.16 249.28C1219.68 247.733 1219.38 246.227 1219.24 244.76C1221 244.04 1222.95 243.413 1225.08 242.88C1227.24 242.347 1229.39 241.933 1231.52 241.64C1233.66 241.347 1235.59 241.2 1237.32 241.2C1239.7 241.2 1241.95 241.64 1244.08 242.52C1246.24 243.4 1248 244.84 1249.36 246.84C1250.72 248.813 1251.4 251.467 1251.4 254.8V271.08C1251.4 272.307 1251.58 273.373 1251.92 274.28C1252.27 275.16 1252.84 275.907 1253.64 276.52ZM1278.46 273.28C1279.1 275.067 1279.42 276.96 1279.42 278.96C1279.42 279.387 1279.39 279.84 1279.34 280.32C1279.31 280.8 1279.25 281.24 1279.14 281.64C1277.99 281.827 1276.67 282 1275.18 282.16C1273.71 282.32 1272.25 282.4 1270.78 282.4C1267.31 282.4 1264.83 281.533 1263.34 279.8C1261.85 278.04 1261.1 275.333 1261.1 271.68V223.68L1261.66 223.12H1266.26C1268.63 223.12 1270.3 223.667 1271.26 224.76C1272.25 225.827 1272.74 227.693 1272.74 230.36V269.52C1272.74 270.747 1273.01 271.68 1273.54 272.32C1274.07 272.96 1274.95 273.28 1276.18 273.28H1278.46Z" fill="#004A5C"/>
</g>
<defs>
<filter id="filter0_i_60_65" x="2.6001" y="0.639893" width="1277.28" height="199.13" filterUnits="userSpaceOnUse" color-interpolation-filters="sRGB">
<feFlood flood-opacity="0" result="BackgroundImageFix"/>
<feBlend mode="normal" in="SourceGraphic" in2="BackgroundImageFix" result="shape"/>
<feColorMatrix in="SourceAlpha" type="matrix" values="0 0 0 0 0 0 0 0 0 0 0 0 0 0 0 0 0 0 127 0" result="hardAlpha"/>
<feOffset dy="4"/>
<feGaussianBlur stdDeviation="2"/>
<feComposite in2="hardAlpha" operator="arithmetic" k2="-1" k3="1"/>
<feColorMatrix type="matrix" values="0 0 0 0 0 0 0 0 0 0 0 0 0 0 0 0 0 0 0.25 0"/>
<feBlend mode="normal" in2="shape" result="effect1_innerShadow_60_65"/>
</filter>
<filter id="filter1_i_60_65" x="1002.36" y="223.12" width="277.059" height="80.1599" filterUnits="userSpaceOnUse" color-interpolation-filters="sRGB">
<feFlood flood-opacity="0" result="BackgroundImageFix"/>
<feBlend mode="normal" in="SourceGraphic" in2="BackgroundImageFix" result="shape"/>
<feColorMatrix in="SourceAlpha" type="matrix" values="0 0 0 0 0 0 0 0 0 0 0 0 0 0 0 0 0 0 127 0" result="hardAlpha"/>
<feOffset dy="4"/>
<feGaussianBlur stdDeviation="2"/>
<feComposite in2="hardAlpha" operator="arithmetic" k2="-1" k3="1"/>
<feColorMatrix type="matrix" values="0 0 0 0 0 0 0 0 0 0 0 0 0 0 0 0 0 0 0.25 0"/>
<feBlend mode="normal" in2="shape" result="effect1_innerShadow_60_65"/>
</filter>
</defs>
</svg>
