<svg width="1282" height="289" viewBox="0 0 1282 289" fill="none" xmlns="http://www.w3.org/2000/svg">
<g filter="url(#filter0_i_81_150)">
<path d="M16.38 153.91C20.02 156.077 23.8767 157.94 27.95 159.5C32.0233 161.06 36.1833 161.84 40.43 161.84C49.9633 161.84 56.3333 158.937 59.54 153.13C62.7467 147.323 64.35 139.047 64.35 128.3V14.42C67.47 13.8133 70.9367 13.4233 74.75 13.25C78.65 13.0767 81.8133 12.99 84.24 12.99C86.9267 12.99 90.09 13.0767 93.73 13.25C97.37 13.4233 100.837 13.8133 104.13 14.42V124.4C104.13 134.54 103.263 143.9 101.53 152.48C99.8833 160.973 96.8933 168.383 92.56 174.71C88.2267 180.95 82.2033 185.847 74.49 189.4C66.7767 192.867 56.8533 194.6 44.72 194.6C37.8733 194.6 30.68 193.647 23.14 191.74C15.6 189.833 8.75333 187.017 2.6 183.29C3.38 178.177 4.94 173.02 7.28 167.82C9.70667 162.533 12.74 157.897 16.38 153.91ZM247.591 155.08C247.591 159.327 248.241 163.227 249.541 166.78C250.841 170.247 252.618 172.847 254.871 174.58C254.091 178.047 252.488 181.687 250.061 185.5C247.721 189.313 245.294 192.173 242.781 194.08C231.688 193.647 223.238 189.703 217.431 182.25C211.711 174.71 208.851 165.697 208.851 155.21V62.39C214.398 61.4367 220.854 60.96 228.221 60.96C235.241 60.96 241.698 61.4367 247.591 62.39V155.08ZM137.091 94.24C137.091 89.2133 136.614 84.5333 135.661 80.2C134.794 75.78 133.234 71.9233 130.981 68.63C133.754 66.29 137.264 64.34 141.511 62.78C145.758 61.22 150.308 60.44 155.161 60.44C162.874 60.44 168.248 62.52 171.281 66.68C174.314 70.7533 175.831 76.6467 175.831 84.36V141.3C175.831 147.54 176.654 152.133 178.301 155.08C179.948 158.027 183.068 159.5 187.661 159.5C190.608 159.5 193.944 158.763 197.671 157.29C201.398 155.73 205.081 153.26 208.721 149.88C212.448 146.5 215.611 142.123 218.211 136.75V170.94C212.144 177.007 205.428 182.423 198.061 187.19C190.781 191.957 182.504 194.34 173.231 194.34C165.344 194.34 158.714 192.39 153.341 188.49C147.968 184.503 143.894 179.087 141.121 172.24C138.434 165.307 137.091 157.42 137.091 148.58V94.24ZM324.773 192C319.053 192.953 312.596 193.43 305.403 193.43C298.383 193.43 291.926 192.953 286.033 192V104.64C286.033 100.307 285.123 96.7533 283.303 93.98C281.569 91.2067 278.406 89.82 273.813 89.82H270.173C269.046 85.5733 268.483 81.1967 268.483 76.69C268.483 74.5233 268.613 72.2267 268.873 69.8C269.133 67.2867 269.566 64.9033 270.173 62.65C273.986 62.2167 277.886 61.9133 281.873 61.74C285.946 61.48 289.326 61.35 292.013 61.35H297.472C305.793 61.35 312.423 64.08 317.363 69.54C322.303 74.9133 324.773 82.1933 324.773 91.38V192ZM278.103 26.12C278.103 20.92 279.099 16.0667 281.093 11.56C283.259 10.4333 286.033 9.47999 289.413 8.69999C292.879 7.91999 296.303 7.53 299.683 7.53C302.976 7.53 306.399 7.91999 309.953 8.69999C313.593 9.47999 316.366 10.4333 318.273 11.56C319.226 13.7267 319.963 16.1533 320.483 18.84C321.003 21.44 321.263 23.8667 321.263 26.12C321.263 31.2333 320.266 36.13 318.273 40.81C316.366 41.9367 313.593 42.89 309.953 43.67C306.399 44.3633 302.976 44.71 299.683 44.71C296.303 44.71 292.836 44.3633 289.283 43.67C285.729 42.89 282.999 41.9367 281.093 40.81C279.099 36.13 278.103 31.2333 278.103 26.12ZM422.252 118.94C422.339 112.353 421.992 106.72 421.212 102.04C420.519 97.36 419.002 93.7633 416.662 91.25C414.322 88.7367 410.769 87.48 406.002 87.48C399.676 87.48 395.169 90.6867 392.482 97.1C389.882 103.513 388.582 113.697 388.582 127.65C388.582 141.603 390.576 151.397 394.562 157.03C398.636 162.663 404.486 165.48 412.112 165.48C417.312 165.48 422.382 164.353 427.322 162.1C432.349 159.76 436.942 157.117 441.102 154.17C444.222 155.99 447.212 159.11 450.072 163.53C453.019 167.95 454.926 172.11 455.792 176.01C450.072 181.99 442.706 186.8 433.692 190.44C424.679 193.993 415.406 195.77 405.872 195.77C396.512 195.77 388.279 194.167 381.172 190.96C374.066 187.667 368.129 183.03 363.362 177.05C358.682 170.983 355.129 163.79 352.702 155.47C350.276 147.063 349.062 137.79 349.062 127.65C349.062 110.923 351.879 97.5333 357.512 87.48C363.232 77.34 370.512 70.0167 379.352 65.51C388.192 60.9167 397.336 58.62 406.782 58.62C414.149 58.62 420.909 59.7033 427.062 61.87C433.216 63.95 438.502 66.8967 442.922 70.71C447.429 74.5233 450.896 79.03 453.322 84.23C455.749 89.43 456.962 95.1067 456.962 101.26C456.962 107.76 455.186 112.57 451.632 115.69C448.079 118.81 443.486 120.37 437.852 120.37C434.646 120.37 431.829 120.24 429.402 119.98C427.062 119.72 424.679 119.373 422.252 118.94ZM494.875 139.74V112.96H545.965V109.97C545.965 105.637 545.359 101.693 544.145 98.14C542.932 94.5867 540.982 91.7267 538.295 89.56C535.609 87.3933 532.055 86.31 527.635 86.31C520.962 86.31 516.195 89.0833 513.335 94.63C510.562 100.09 509.175 108.367 509.175 119.46V131.16C509.175 137.4 509.739 143.163 510.865 148.45C511.992 153.737 514.289 158.027 517.755 161.32C521.309 164.527 526.639 166.13 533.745 166.13C539.639 166.13 545.445 165.35 551.165 163.79C556.972 162.143 562.519 160.193 567.805 157.94C570.665 160.8 572.962 164.397 574.695 168.73C576.429 173.063 577.599 177.137 578.205 180.95C571.705 185.717 563.905 189.4 554.805 192C545.792 194.513 536.692 195.77 527.505 195.77C516.239 195.77 506.879 193.907 499.425 190.18C492.059 186.367 486.209 181.253 481.875 174.84C477.629 168.427 474.595 161.19 472.775 153.13C471.042 145.07 470.175 136.707 470.175 128.04C470.175 114.953 472.169 103.21 476.155 92.81C480.142 82.3233 486.339 74.0033 494.745 67.85C503.239 61.6967 514.245 58.62 527.765 58.62C539.205 58.62 548.912 61.0467 556.885 65.9C564.945 70.7533 571.099 77.34 575.345 85.66C579.592 93.98 581.715 103.383 581.715 113.87C581.715 119.417 581.455 124.053 580.935 127.78C580.502 131.507 579.679 135.493 578.465 139.74H494.875ZM810.853 103.08C810.853 113.22 810.159 122.97 808.773 132.33C807.386 141.69 804.613 150.443 800.453 158.59C796.379 166.737 790.226 174.017 781.993 180.43C778.006 183.55 773.196 186.063 767.563 187.97C762.016 189.877 756.339 191.263 750.533 192.13C744.726 192.997 739.396 193.43 734.543 193.43C727.176 193.43 719.983 193.387 712.963 193.3C706.029 193.213 699.053 193.083 692.033 192.91C685.099 192.737 677.863 192.563 670.323 192.39L668.503 190.7V15.72L670.323 14.03C677.776 13.77 684.969 13.5533 691.903 13.38C698.923 13.2067 705.943 13.12 712.963 13.12C719.983 13.0333 727.176 12.99 734.543 12.99C739.396 12.99 744.726 13.4233 750.533 14.29C756.426 15.1567 762.146 16.5433 767.693 18.45C773.326 20.3567 778.093 22.87 781.993 25.99C790.139 32.4033 796.249 39.6833 800.323 47.83C804.483 55.9767 807.256 64.73 808.643 74.09C810.116 83.3633 810.853 93.0267 810.853 103.08ZM770.163 103.08C770.163 96.32 769.729 89.4733 768.863 82.54C768.083 75.6067 766.479 69.2367 764.053 63.43C761.626 57.5367 758.029 52.8133 753.263 49.26C748.583 45.7067 742.343 43.93 734.543 43.93C730.036 43.93 725.703 43.93 721.543 43.93C717.383 43.8433 712.876 43.7567 708.023 43.67V162.62C712.876 162.533 717.383 162.49 721.543 162.49C725.703 162.49 730.036 162.49 734.543 162.49C742.343 162.49 748.583 160.713 753.263 157.16C758.029 153.52 761.626 148.797 764.053 142.99C766.479 137.097 768.083 130.683 768.863 123.75C769.729 116.73 770.163 109.84 770.163 103.08ZM922.669 62.78C922.669 67.3733 921.889 73.2233 920.329 80.33C918.769 87.35 916.342 93.5467 913.049 98.92C910.882 98.14 908.716 97.62 906.549 97.36C904.469 97.0133 902.302 96.71 900.049 96.45C896.409 96.45 893.116 97.1433 890.169 98.53C887.309 99.9167 884.709 101.867 882.369 104.38C880.116 106.893 877.992 109.97 875.999 113.61C874.092 117.163 872.272 121.15 870.539 125.57L865.989 119.72C866.422 112.7 867.332 105.723 868.719 98.79C870.192 91.77 872.359 85.4 875.219 79.68C878.166 73.8733 882.109 69.2367 887.049 65.77C892.076 62.3033 898.402 60.57 906.029 60.57C909.756 60.57 912.832 60.7867 915.259 61.22C917.686 61.5667 920.156 62.0867 922.669 62.78ZM829.329 80.33C830.109 76.8633 831.712 73.1367 834.139 69.15C836.566 65.1633 838.992 62.2167 841.419 60.31C852.946 61.4367 861.612 65.9 867.419 73.7C873.312 81.5 876.822 91.7267 877.949 104.38V192C872.229 192.953 865.772 193.43 858.579 193.43C851.559 193.43 845.102 192.953 839.209 192V107.37C839.209 99.7433 838.082 93.7633 835.829 89.43C833.662 85.01 831.496 81.9767 829.329 80.33ZM988.737 192C983.017 192.953 976.561 193.43 969.367 193.43C962.347 193.43 955.891 192.953 949.997 192V104.64C949.997 100.307 949.087 96.7533 947.267 93.98C945.534 91.2067 942.371 89.82 937.777 89.82H934.137C933.011 85.5733 932.447 81.1967 932.447 76.69C932.447 74.5233 932.577 72.2267 932.837 69.8C933.097 67.2867 933.531 64.9033 934.137 62.65C937.951 62.2167 941.851 61.9133 945.837 61.74C949.911 61.48 953.291 61.35 955.977 61.35H961.437C969.757 61.35 976.387 64.08 981.327 69.54C986.267 74.9133 988.737 82.1933 988.737 91.38V192ZM942.067 26.12C942.067 20.92 943.064 16.0667 945.057 11.56C947.224 10.4333 949.997 9.47999 953.377 8.69999C956.844 7.91999 960.267 7.53 963.647 7.53C966.941 7.53 970.364 7.91999 973.917 8.69999C977.557 9.47999 980.331 10.4333 982.237 11.56C983.191 13.7267 983.927 16.1533 984.447 18.84C984.967 21.44 985.227 23.8667 985.227 26.12C985.227 31.2333 984.231 36.13 982.237 40.81C980.331 41.9367 977.557 42.89 973.917 43.67C970.364 44.3633 966.941 44.71 963.647 44.71C960.267 44.71 956.801 44.3633 953.247 43.67C949.694 42.89 946.964 41.9367 945.057 40.81C943.064 36.13 942.067 31.2333 942.067 26.12ZM1037.34 60.7C1044.79 60.7 1050.38 63.2133 1054.11 68.24C1057.83 73.2667 1059.7 80.1133 1059.7 88.78V192C1053.98 192.953 1047.52 193.43 1040.33 193.43C1033.31 193.43 1026.81 192.953 1020.83 192V62.52L1022.65 60.7H1037.34ZM1131.33 160.15C1131.33 165.177 1131.8 169.9 1132.76 174.32C1133.71 178.653 1135.31 182.467 1137.57 185.76C1134.71 188.1 1131.15 190.05 1126.91 191.61C1122.75 193.17 1118.24 193.95 1113.39 193.95C1105.59 193.95 1100.17 191.913 1097.14 187.84C1094.1 183.68 1092.59 177.743 1092.59 170.03V113.09C1092.59 106.85 1091.76 102.257 1090.12 99.31C1088.47 96.3633 1085.35 94.89 1080.76 94.89C1077.9 94.89 1074.56 95.67 1070.75 97.23C1067.02 98.7033 1063.34 101.13 1059.7 104.51C1056.14 107.803 1053.02 112.18 1050.34 117.64V83.45C1056.4 77.3833 1063.08 71.9667 1070.36 67.2C1077.72 62.4333 1086 60.05 1095.19 60.05C1103.16 60.05 1109.83 62.0433 1115.21 66.03C1120.58 69.93 1124.61 75.3033 1127.3 82.15C1129.98 88.9967 1131.33 96.8833 1131.33 105.81V160.15ZM1200.84 192C1195.3 192.953 1188.93 193.43 1181.73 193.43C1175.23 193.43 1168.99 192.953 1163.01 192V2.45999L1164.83 0.639984H1179.91C1187.63 0.639984 1193.04 2.41665 1196.16 5.96999C1199.28 9.43666 1200.84 15.5033 1200.84 24.17V192ZM1267.4 160.15C1269.48 166.65 1271.39 171.46 1273.12 174.58C1274.94 177.613 1277.2 180.083 1279.88 181.99C1276.85 185.37 1272.99 188.23 1268.31 190.57C1263.63 192.823 1258.82 193.95 1253.88 193.95C1248.16 193.95 1243.87 192.607 1241.01 189.92C1238.24 187.233 1235.77 182.727 1233.6 176.4L1225.54 153.39C1223.64 147.757 1221.47 144.03 1219.04 142.21C1216.62 140.39 1213.45 139.48 1209.55 139.48C1206 139.48 1202.84 139.61 1200.06 139.87C1197.38 140.13 1194.56 140.477 1191.61 140.91L1181.34 142.08V115.3H1221.25C1230.7 115.3 1238.85 117.293 1245.69 121.28C1252.54 125.267 1257.52 131.723 1260.64 140.65L1267.4 160.15ZM1251.67 103.6C1247.77 111.053 1242.23 116.643 1235.03 120.37C1227.93 124.01 1219 125.83 1208.25 125.83H1185.89V108.02L1205.65 107.63C1207.47 107.63 1208.86 107.37 1209.81 106.85C1210.85 106.243 1211.85 105.03 1212.8 103.21L1227.62 75.78C1230.05 71.0133 1233 67.4167 1236.46 64.99C1239.93 62.5633 1244.31 61.35 1249.59 61.35C1253.67 61.35 1257.39 61.3933 1260.77 61.48C1264.15 61.5667 1267.62 61.6967 1271.17 61.87L1272.73 63.95L1251.67 103.6Z" fill="#97181E"/>
</g>
<g filter="url(#filter1_i_81_150)">
<path d="M1061.4 265.2H1056.24C1054.08 265.2 1052.36 264.573 1051.08 263.32C1049.8 262.04 1049.16 260.28 1049.16 258.04V210.4L1049.72 209.84H1054.2C1056.57 209.84 1058.36 210.453 1059.56 211.68C1060.79 212.907 1061.4 214.88 1061.4 217.6V265.2ZM1083 254.68C1083 258.573 1082.37 261.307 1081.12 262.88C1079.87 264.427 1077.73 265.2 1074.72 265.2H1056.24L1049.72 256.36C1053.08 255.773 1056.41 255.347 1059.72 255.08C1063.05 254.813 1066.09 254.68 1068.84 254.68H1083ZM1111.61 263.92C1110.62 267.6 1109.4 270.84 1107.93 273.64C1106.49 276.44 1104.53 278.613 1102.05 280.16C1099.57 281.733 1096.29 282.52 1092.21 282.52C1090.66 282.52 1088.97 282.347 1087.13 282C1085.29 281.653 1083.84 281.293 1082.77 280.92C1082.64 279.56 1082.81 278.027 1083.29 276.32C1083.77 274.613 1084.41 273.307 1085.21 272.4C1086.04 272.667 1087.09 272.933 1088.37 273.2C1089.65 273.467 1090.93 273.6 1092.21 273.6C1093.62 273.6 1094.85 273.32 1095.89 272.76C1096.93 272.2 1097.81 271.4 1098.53 270.36C1099.28 269.32 1099.86 268.08 1100.29 266.64L1100.61 265.52C1098.5 265.493 1096.77 265.133 1095.41 264.44C1094.05 263.72 1093.1 262.44 1092.57 260.6L1083.13 226.08C1084.36 225.52 1085.64 225.107 1086.97 224.84C1088.3 224.573 1089.46 224.44 1090.45 224.44C1091.89 224.44 1093.09 224.8 1094.05 225.52C1095.01 226.24 1095.74 227.587 1096.25 229.56L1100.21 245.36C1100.48 246.293 1100.73 247.427 1100.97 248.76C1101.21 250.093 1101.44 251.413 1101.65 252.72C1101.86 254.027 1102.04 255.133 1102.17 256.04C1102.22 256.413 1102.44 256.6 1102.81 256.6L1110.05 225.2C1110.72 224.987 1111.48 224.853 1112.33 224.8C1113.21 224.72 1114.02 224.68 1114.77 224.68C1115.78 224.68 1116.82 224.733 1117.89 224.84C1118.98 224.947 1120.06 225.187 1121.13 225.56L1121.57 226.32L1111.61 263.92ZM1146.21 242.52C1146.23 240.493 1146.13 238.76 1145.89 237.32C1145.67 235.88 1145.21 234.773 1144.49 234C1143.77 233.227 1142.67 232.84 1141.21 232.84C1139.26 232.84 1137.87 233.827 1137.05 235.8C1136.25 237.773 1135.85 240.907 1135.85 245.2C1135.85 249.493 1136.46 252.507 1137.69 254.24C1138.94 255.973 1140.74 256.84 1143.09 256.84C1144.69 256.84 1146.25 256.493 1147.77 255.8C1149.31 255.08 1150.73 254.267 1152.01 253.36C1152.97 253.92 1153.89 254.88 1154.77 256.24C1155.67 257.6 1156.26 258.88 1156.53 260.08C1154.77 261.92 1152.5 263.4 1149.73 264.52C1146.95 265.613 1144.1 266.16 1141.17 266.16C1138.29 266.16 1135.75 265.667 1133.57 264.68C1131.38 263.667 1129.55 262.24 1128.09 260.4C1126.65 258.533 1125.55 256.32 1124.81 253.76C1124.06 251.173 1123.69 248.32 1123.69 245.2C1123.69 240.053 1124.55 235.933 1126.29 232.84C1128.05 229.72 1130.29 227.467 1133.01 226.08C1135.73 224.667 1138.54 223.96 1141.45 223.96C1143.71 223.96 1145.79 224.293 1147.69 224.96C1149.58 225.6 1151.21 226.507 1152.57 227.68C1153.95 228.853 1155.02 230.24 1155.77 231.84C1156.51 233.44 1156.89 235.187 1156.89 237.08C1156.89 239.08 1156.34 240.56 1155.25 241.52C1154.15 242.48 1152.74 242.96 1151.01 242.96C1150.02 242.96 1149.15 242.92 1148.41 242.84C1147.69 242.76 1146.95 242.653 1146.21 242.52ZM1175.62 265C1173.91 265.293 1171.95 265.44 1169.74 265.44C1167.79 265.44 1165.87 265.293 1163.98 265V206.68L1164.54 206.12H1169.18C1171.55 206.12 1173.22 206.667 1174.18 207.76C1175.14 208.827 1175.62 210.693 1175.62 213.36V265ZM1197.7 255.2C1197.7 256.747 1197.84 258.2 1198.14 259.56C1198.43 260.893 1198.91 262.067 1199.58 263.08C1198.72 263.8 1197.64 264.4 1196.34 264.88C1195.06 265.36 1193.67 265.6 1192.18 265.6C1189.78 265.6 1188.11 264.973 1187.18 263.72C1186.24 262.44 1185.78 260.613 1185.78 258.24V240.76C1185.78 238.813 1185.52 237.387 1185.02 236.48C1184.51 235.573 1183.55 235.12 1182.14 235.12C1181.26 235.12 1180.23 235.36 1179.06 235.84C1177.91 236.32 1176.78 237.08 1175.66 238.12C1174.56 239.133 1173.6 240.467 1172.78 242.12V231.6C1174.62 229.733 1176.67 228.067 1178.94 226.6C1181.2 225.133 1183.75 224.4 1186.58 224.4C1189.03 224.4 1191.08 225.013 1192.74 226.24C1194.39 227.44 1195.63 229.107 1196.46 231.24C1197.28 233.347 1197.7 235.773 1197.7 238.52V255.2ZM1212.61 248.92V240.68H1228.33V239.76C1228.33 238.427 1228.15 237.213 1227.77 236.12C1227.4 235.027 1226.8 234.147 1225.97 233.48C1225.15 232.813 1224.05 232.48 1222.69 232.48C1220.64 232.48 1219.17 233.333 1218.29 235.04C1217.44 236.72 1217.01 239.267 1217.01 242.68V246.28C1217.01 248.2 1217.19 249.973 1217.53 251.6C1217.88 253.227 1218.59 254.547 1219.65 255.56C1220.75 256.547 1222.39 257.04 1224.57 257.04C1226.39 257.04 1228.17 256.8 1229.93 256.32C1231.72 255.813 1233.43 255.213 1235.05 254.52C1235.93 255.4 1236.64 256.507 1237.17 257.84C1237.71 259.173 1238.07 260.427 1238.25 261.6C1236.25 263.067 1233.85 264.2 1231.05 265C1228.28 265.773 1225.48 266.16 1222.65 266.16C1219.19 266.16 1216.31 265.587 1214.01 264.44C1211.75 263.267 1209.95 261.693 1208.61 259.72C1207.31 257.747 1206.37 255.52 1205.81 253.04C1205.28 250.56 1205.01 247.987 1205.01 245.32C1205.01 241.293 1205.63 237.68 1206.85 234.48C1208.08 231.253 1209.99 228.693 1212.57 226.8C1215.19 224.907 1218.57 223.96 1222.73 223.96C1226.25 223.96 1229.24 224.707 1231.69 226.2C1234.17 227.693 1236.07 229.72 1237.37 232.28C1238.68 234.84 1239.33 237.733 1239.33 240.96C1239.33 242.667 1239.25 244.093 1239.09 245.24C1238.96 246.387 1238.71 247.613 1238.33 248.92H1212.61ZM1252.38 248.92V240.68H1268.1V239.76C1268.1 238.427 1267.91 237.213 1267.54 236.12C1267.17 235.027 1266.57 234.147 1265.74 233.48C1264.91 232.813 1263.82 232.48 1262.46 232.48C1260.41 232.48 1258.94 233.333 1258.06 235.04C1257.21 236.72 1256.78 239.267 1256.78 242.68V246.28C1256.78 248.2 1256.95 249.973 1257.3 251.6C1257.65 253.227 1258.35 254.547 1259.42 255.56C1260.51 256.547 1262.15 257.04 1264.34 257.04C1266.15 257.04 1267.94 256.8 1269.7 256.32C1271.49 255.813 1273.19 255.213 1274.82 254.52C1275.7 255.4 1276.41 256.507 1276.94 257.84C1277.47 259.173 1277.83 260.427 1278.02 261.6C1276.02 263.067 1273.62 264.2 1270.82 265C1268.05 265.773 1265.25 266.16 1262.42 266.16C1258.95 266.16 1256.07 265.587 1253.78 264.44C1251.51 263.267 1249.71 261.693 1248.38 259.72C1247.07 257.747 1246.14 255.52 1245.58 253.04C1245.05 250.56 1244.78 247.987 1244.78 245.32C1244.78 241.293 1245.39 237.68 1246.62 234.48C1247.85 231.253 1249.75 228.693 1252.34 226.8C1254.95 224.907 1258.34 223.96 1262.5 223.96C1266.02 223.96 1269.01 224.707 1271.46 226.2C1273.94 227.693 1275.83 229.72 1277.14 232.28C1278.45 234.84 1279.1 237.733 1279.1 240.96C1279.1 242.667 1279.02 244.093 1278.86 245.24C1278.73 246.387 1278.47 247.613 1278.1 248.92H1252.38Z" fill="#97181E"/>
</g>
<defs>
<filter id="filter0_i_81_150" x="2.6001" y="0.639893" width="1277.28" height="199.13" filterUnits="userSpaceOnUse" color-interpolation-filters="sRGB">
<feFlood flood-opacity="0" result="BackgroundImageFix"/>
<feBlend mode="normal" in="SourceGraphic" in2="BackgroundImageFix" result="shape"/>
<feColorMatrix in="SourceAlpha" type="matrix" values="0 0 0 0 0 0 0 0 0 0 0 0 0 0 0 0 0 0 127 0" result="hardAlpha"/>
<feOffset dy="4"/>
<feGaussianBlur stdDeviation="2"/>
<feComposite in2="hardAlpha" operator="arithmetic" k2="-1" k3="1"/>
<feColorMatrix type="matrix" values="0 0 0 0 0 0 0 0 0 0 0 0 0 0 0 0 0 0 0.25 0"/>
<feBlend mode="normal" in2="shape" result="effect1_innerShadow_81_150"/>
</filter>
<filter id="filter1_i_81_150" x="1049.16" y="206.12" width="229.938" height="80.3999" filterUnits="userSpaceOnUse" color-interpolation-filters="sRGB">
<feFlood flood-opacity="0" result="BackgroundImageFix"/>
<feBlend mode="normal" in="SourceGraphic" in2="BackgroundImageFix" result="shape"/>
<feColorMatrix in="SourceAlpha" type="matrix" values="0 0 0 0 0 0 0 0 0 0 0 0 0 0 0 0 0 0 127 0" result="hardAlpha"/>
<feOffset dy="4"/>
<feGaussianBlur stdDeviation="2"/>
<feComposite in2="hardAlpha" operator="arithmetic" k2="-1" k3="1"/>
<feColorMatrix type="matrix" values="0 0 0 0 0 0 0 0 0 0 0 0 0 0 0 0 0 0 0.25 0"/>
<feBlend mode="normal" in2="shape" result="effect1_innerShadow_81_150"/>
</filter>
</defs>
</svg>
