<svg width="230" height="74" viewBox="0 0 230 74" fill="none" xmlns="http://www.w3.org/2000/svg">
<g filter="url(#filter0_i_48_28)">
<path d="M4.84 1.44C6.12 1.22666 7.53333 1.08 9.08 0.999995C10.6267 0.89333 11.96 0.839997 13.08 0.839997C14.1733 0.839997 15.4 0.89333 16.76 0.999995C18.1467 1.08 19.4933 1.22666 20.8 1.44L25.92 21.76C26.0533 22.2667 26.24 23.1067 26.48 24.28C26.7467 25.4533 27.04 26.7733 27.36 28.24C27.68 29.68 27.9733 31.1067 28.24 32.52C28.5333 33.9067 28.76 35.08 28.92 36.04H29.44C29.6 35.08 29.8267 33.9067 30.12 32.52C30.4133 31.1067 30.7067 29.68 31 28.24C31.32 26.7733 31.6133 25.4533 31.88 24.28C32.1733 23.1067 32.3733 22.2667 32.48 21.76L37.6 1.44C38.9067 1.22666 40.24 1.08 41.6 0.999995C42.9867 0.89333 44.2267 0.839997 45.32 0.839997C46.4133 0.839997 47.7333 0.89333 49.28 0.999995C50.8267 1.08 52.2533 1.22666 53.56 1.44L57.8 55.84C56.92 56.0533 55.9067 56.2 54.76 56.28C53.64 56.3867 52.5867 56.44 51.6 56.44C50.6933 56.44 49.7867 56.4133 48.88 56.36C48 56.3067 47.1333 56.2133 46.28 56.08L44.96 32.84C44.8533 31 44.7467 29.0133 44.64 26.88C44.56 24.72 44.48 22.5867 44.4 20.48C44.3467 18.3467 44.32 16.4267 44.32 14.72H43.76L35.48 47.92C34.5733 48.0533 33.5067 48.16 32.28 48.24C31.0533 48.32 30.0133 48.36 29.16 48.36C28.36 48.36 27.3467 48.32 26.12 48.24C24.8933 48.16 23.8267 48.0533 22.92 47.92L14.6 14.72H14.08C14.08 16.4267 14.04 18.3467 13.96 20.48C13.88 22.5867 13.8 24.72 13.72 26.88C13.64 29.0133 13.5467 31 13.44 32.84L12.12 56.08C11.24 56.2133 10.36 56.3067 9.48 56.36C8.6 56.4133 7.69333 56.44 6.76 56.44C5.77333 56.44 4.70667 56.3867 3.56 56.28C2.44 56.2 1.45333 56.0533 0.6 55.84L4.84 1.44ZM64.9663 45.08C64.9663 41.9067 65.6996 39.3067 67.1663 37.28C68.6596 35.2267 70.6063 33.72 73.0063 32.76C75.4063 31.7733 77.9796 31.28 80.7263 31.28C81.9796 31.28 83.5262 31.32 85.3663 31.4C87.2063 31.4533 88.8596 31.6267 90.3263 31.92V39.52C89.1263 39.2533 87.7129 39.0933 86.0863 39.04C84.4596 38.9867 83.0729 38.96 81.9263 38.96C80.0596 38.96 78.6996 39.4533 77.8463 40.44C76.9929 41.4267 76.5663 42.7067 76.5663 44.28C76.5663 45.4267 76.9129 46.3867 77.6063 47.16C78.2996 47.9333 79.2596 48.32 80.4863 48.32C82.1396 48.32 83.8329 47.7333 85.5663 46.56C87.2996 45.3867 88.7529 43.7467 89.9263 41.64L91.6063 49.36C90.5663 50.5867 89.3663 51.8 88.0063 53C86.6729 54.1733 85.1129 55.16 83.3263 55.96C81.5396 56.76 79.4596 57.16 77.0863 57.16C74.3396 57.16 72.0729 56.56 70.2863 55.36C68.4996 54.1333 67.1663 52.6 66.2863 50.76C65.4063 48.8933 64.9663 47 64.9663 45.08ZM100.846 50.52C100.606 51.5867 100.113 52.7333 99.3663 53.96C98.6463 55.16 97.8996 56.0533 97.1263 56.64C94.8596 56.56 92.9929 56.0133 91.5263 55C90.0863 53.9867 88.9796 52.76 88.2063 51.32C87.4329 49.8533 86.9396 48.4133 86.7263 47V29.8C86.7263 27.9867 86.2729 26.64 85.3663 25.76C84.4863 24.88 83.1263 24.44 81.2863 24.44C79.5263 24.44 77.6196 24.72 75.5663 25.28C73.5396 25.8133 71.4863 26.4 69.4063 27.04C68.5529 26.08 67.8729 24.8267 67.3663 23.28C66.8863 21.7333 66.5796 20.2267 66.4463 18.76C68.2063 18.04 70.1529 17.4133 72.2863 16.88C74.4463 16.3467 76.5929 15.9333 78.7263 15.64C80.8596 15.3467 82.7929 15.2 84.5263 15.2C86.8996 15.2 89.1529 15.64 91.2863 16.52C93.4463 17.4 95.2063 18.84 96.5663 20.84C97.9263 22.8133 98.6063 25.4667 98.6063 28.8V45.08C98.6063 46.3067 98.7796 47.3733 99.1263 48.28C99.4729 49.16 100.046 49.9067 100.846 50.52ZM113.462 15.6C115.755 15.6 117.475 16.3733 118.622 17.92C119.769 19.4667 120.342 21.5733 120.342 24.24V56C118.582 56.2933 116.595 56.44 114.382 56.44C112.222 56.44 110.222 56.2933 108.382 56V16.16L108.942 15.6H113.462ZM142.382 46.2C142.382 47.7467 142.529 49.2 142.822 50.56C143.115 51.8933 143.609 53.0667 144.302 54.08C143.422 54.8 142.329 55.4 141.022 55.88C139.742 56.36 138.355 56.6 136.862 56.6C134.462 56.6 132.795 55.9733 131.862 54.72C130.929 53.44 130.462 51.6133 130.462 49.24V31.72C130.462 29.8 130.209 28.3867 129.702 27.48C129.195 26.5733 128.235 26.12 126.822 26.12C125.942 26.12 124.915 26.36 123.742 26.84C122.595 27.2933 121.462 28.04 120.342 29.08C119.249 30.0933 118.289 31.44 117.462 33.12V22.6C119.329 20.7333 121.382 19.0667 123.622 17.6C125.889 16.1333 128.435 15.4 131.262 15.4C133.715 15.4 135.769 16.0133 137.422 17.24C139.075 18.44 140.315 20.0933 141.142 22.2C141.969 24.3067 142.382 26.7333 142.382 29.48V46.2ZM187.372 21.6C186.679 22.1067 186.132 22.9067 185.732 24C185.332 25.0933 185.132 26.3067 185.132 27.64V49.08C185.132 52.7333 184.959 55.7467 184.612 58.12C184.292 60.52 183.825 62.48 183.212 64C182.599 65.52 181.879 66.8133 181.052 67.88C179.505 69.8267 177.452 71.28 174.892 72.24C172.332 73.2 169.465 73.68 166.292 73.68C163.785 73.68 161.185 73.4267 158.492 72.92C155.825 72.44 153.465 71.8 151.412 71C151.412 69.5867 151.692 68.04 152.252 66.36C152.812 64.68 153.519 63.3467 154.372 62.36C156.079 63.1067 157.865 63.6933 159.732 64.12C161.625 64.5733 163.439 64.8 165.172 64.8C167.225 64.8 168.852 64.44 170.052 63.72C171.279 63 172.159 62 172.692 60.72C173.225 59.44 173.492 57.96 173.492 56.28V27.32C173.492 24.0933 174.332 21.3467 176.012 19.08C177.719 16.8133 180.265 15.6133 183.652 15.48C184.425 16.0667 185.199 16.9733 185.972 18.2C186.745 19.4 187.212 20.5333 187.372 21.6ZM149.852 36.16C149.852 31.5467 150.585 27.6667 152.052 24.52C153.519 21.3733 155.465 19 157.892 17.4C160.319 15.7733 162.959 14.96 165.812 14.96C168.372 14.96 170.559 15.3733 172.372 16.2C174.185 17.0267 175.692 18.0533 176.892 19.28C178.119 20.48 179.079 21.6667 179.772 22.84L177.852 32.6C176.332 29.8 174.665 27.6533 172.852 26.16C171.039 24.64 169.372 23.88 167.852 23.88C166.545 23.88 165.452 24.3733 164.572 25.36C163.719 26.32 163.079 27.72 162.652 29.56C162.252 31.4 162.052 33.6133 162.052 36.2C162.052 40.0667 162.532 42.8667 163.492 44.6C164.479 46.3067 165.692 47.16 167.132 47.16C168.812 47.16 170.439 46.6 172.012 45.48C173.612 44.3333 174.932 42.68 175.972 40.52L177.692 48.92C176.839 50.3867 175.719 51.7067 174.332 52.88C172.945 54.0533 171.385 55 169.652 55.72C167.919 56.4133 166.092 56.76 164.172 56.76C160.945 56.76 158.265 55.8933 156.132 54.16C154.025 52.4 152.452 49.9733 151.412 46.88C150.372 43.7867 149.852 40.2133 149.852 36.16ZM229.144 36.08C229.144 40.32 228.451 44.0267 227.064 47.2C225.678 50.3467 223.624 52.8 220.904 54.56C218.184 56.2933 214.824 57.16 210.824 57.16C206.824 57.16 203.464 56.28 200.744 54.52C198.024 52.76 195.971 50.3067 194.584 47.16C193.224 43.9867 192.544 40.2933 192.544 36.08C192.544 31.8133 193.238 28.1067 194.624 24.96C196.011 21.7867 198.064 19.3333 200.784 17.6C203.504 15.84 206.851 14.96 210.824 14.96C214.851 14.96 218.224 15.84 220.944 17.6C223.664 19.36 225.704 21.8267 227.064 25C228.451 28.1467 229.144 31.84 229.144 36.08ZM204.784 36.08C204.784 38.32 204.931 40.36 205.224 42.2C205.518 44.04 206.091 45.5067 206.944 46.6C207.824 47.6933 209.131 48.24 210.864 48.24C212.598 48.24 213.891 47.6933 214.744 46.6C215.598 45.5067 216.171 44.04 216.464 42.2C216.758 40.36 216.904 38.32 216.904 36.08C216.904 33.84 216.758 31.8 216.464 29.96C216.171 28.0933 215.598 26.6133 214.744 25.52C213.891 24.4267 212.598 23.88 210.864 23.88C209.131 23.88 207.824 24.4267 206.944 25.52C206.091 26.6133 205.518 28.0933 205.224 29.96C204.931 31.8 204.784 33.84 204.784 36.08Z" fill="#D00031"/>
</g>
<defs>
<filter id="filter0_i_48_28" x="0.600098" y="0.839996" width="228.544" height="76.84" filterUnits="userSpaceOnUse" color-interpolation-filters="sRGB">
<feFlood flood-opacity="0" result="BackgroundImageFix"/>
<feBlend mode="normal" in="SourceGraphic" in2="BackgroundImageFix" result="shape"/>
<feColorMatrix in="SourceAlpha" type="matrix" values="0 0 0 0 0 0 0 0 0 0 0 0 0 0 0 0 0 0 127 0" result="hardAlpha"/>
<feOffset dy="4"/>
<feGaussianBlur stdDeviation="2"/>
<feComposite in2="hardAlpha" operator="arithmetic" k2="-1" k3="1"/>
<feColorMatrix type="matrix" values="0 0 0 0 0 0 0 0 0 0 0 0 0 0 0 0 0 0 0.25 0"/>
<feBlend mode="normal" in2="shape" result="effect1_innerShadow_48_28"/>
</filter>
</defs>
</svg>
