<svg width="1316" height="186" viewBox="0 0 1316 186" fill="none" xmlns="http://www.w3.org/2000/svg">
<g filter="url(#filter0_i_48_27)">
<path d="M0.916094 166.53C1.43609 160.897 3.16943 155.35 6.11609 149.89C9.14943 144.43 12.5728 140.053 16.3861 136.76C23.7528 141.18 32.0728 145.123 41.3461 148.59C50.6194 152.057 59.8494 153.79 69.0361 153.79C77.0094 153.79 82.8161 151.927 86.4561 148.2C90.0961 144.387 91.9161 140.183 91.9161 135.59C91.9161 132.297 90.8328 128.83 88.6661 125.19C86.5861 121.463 81.8628 118.083 74.4961 115.05L43.1661 101.92C32.4194 97.4133 23.5361 91.4333 16.5161 83.98C9.58276 76.5267 6.11609 66.6467 6.11609 54.34C6.11609 43.68 8.88943 34.32 14.4361 26.26C19.9828 18.2 27.4794 11.9167 36.9261 7.40999C46.4594 2.90332 57.0761 0.649987 68.7761 0.649987C80.9094 0.649987 92.3061 2.20999 102.966 5.32999C113.626 8.44999 122.336 11.7867 129.096 15.34C128.749 20.9733 127.363 26.4767 124.936 31.85C122.509 37.1367 119.389 41.5567 115.576 45.11C108.903 41.9033 101.189 39 92.4361 36.4C83.6828 33.8 75.8394 32.5 68.9061 32.5C61.1928 32.5 55.5594 34.2767 52.0061 37.83C48.5394 41.3833 46.8061 45.1533 46.8061 49.14C46.8061 52.78 48.0194 55.9867 50.4461 58.76C52.9594 61.4467 57.1194 64.0033 62.9261 66.43L94.7761 79.69C103.009 83.07 110.029 87.3167 115.836 92.43C121.729 97.4567 126.193 103.22 129.226 109.72C132.346 116.133 133.906 123.11 133.906 130.65C133.906 141.05 131.393 150.41 126.366 158.73C121.426 167.05 113.929 173.637 103.876 178.49C93.9094 183.343 81.3861 185.77 66.3061 185.77C55.7328 185.77 44.5528 184.123 32.7661 180.83C21.0661 177.45 10.4494 172.683 0.916094 166.53ZM285.783 64.22C285.783 77.6533 283.053 88.92 277.593 98.02C272.219 107.12 264.766 113.967 255.233 118.56C245.786 123.153 234.953 125.45 222.733 125.45H184.513V96.2C186.939 96.0267 190.579 95.8533 195.433 95.68C200.286 95.5067 205.053 95.3767 209.733 95.29C214.499 95.1167 217.793 95.03 219.613 95.03C226.806 95.03 232.223 93.3833 235.863 90.09C239.503 86.71 241.973 82.6367 243.273 77.87C244.573 73.0167 245.223 68.4667 245.223 64.22C245.223 59.9733 244.573 55.51 243.273 50.83C241.973 46.0633 239.503 41.99 235.863 38.61C232.223 35.23 226.806 33.54 219.613 33.54C216.839 33.54 213.979 33.54 211.033 33.54C208.086 33.4533 204.836 33.3667 201.283 33.28V182C198.076 182.607 194.609 182.997 190.883 183.17C187.243 183.343 184.079 183.43 181.393 183.43C178.966 183.43 175.846 183.343 172.033 183.17C168.219 182.997 164.709 182.607 161.503 182V5.71999L163.323 4.02999C174.243 3.76999 184.426 3.55332 193.873 3.37999C203.406 3.11999 213.026 2.98999 222.733 2.98999C234.953 2.98999 245.786 5.19999 255.233 9.61999C264.766 14.04 272.219 20.8 277.593 29.9C283.053 38.9133 285.783 50.3533 285.783 64.22ZM338.268 4.41999C341.475 3.98666 345.288 3.63999 349.708 3.37999C354.128 3.11999 357.985 2.98999 361.278 2.98999C364.485 2.98999 368.298 3.11999 372.718 3.37999C377.225 3.63999 381.038 4.07333 384.158 4.67999L440.448 179.4C437.675 180.96 434.121 182.13 429.788 182.91C425.455 183.777 421.381 184.21 417.568 184.21C411.328 184.21 406.431 182.78 402.878 179.92C399.325 176.973 396.335 171.253 393.908 162.76L374.018 93.47C371.938 86.1033 369.555 77.61 366.868 67.99C364.268 58.37 361.928 49.3567 359.848 40.95H358.288C356.988 47.97 355.081 56.03 352.568 65.13C350.141 74.1433 347.931 82.03 345.938 88.79L318.118 182.26C315.691 182.867 313.048 183.257 310.188 183.43C307.328 183.603 304.381 183.69 301.348 183.69C298.315 183.69 294.935 183.473 291.208 183.04C287.481 182.607 284.448 181.957 282.108 181.09L280.678 179.01L338.268 4.41999ZM340.608 144.04C339.395 144.04 337.921 144.04 336.188 144.04C334.455 143.953 332.721 143.91 330.988 143.91C329.341 143.823 327.911 143.78 326.698 143.78H306.028L318.248 112.71H336.318C337.531 112.71 338.961 112.71 340.608 112.71C342.255 112.623 343.901 112.58 345.548 112.58C347.195 112.493 348.581 112.45 349.708 112.45H369.598C370.811 112.45 372.241 112.493 373.888 112.58C375.535 112.58 377.181 112.623 378.828 112.71C380.475 112.71 381.905 112.71 383.118 112.71H401.838L411.848 143.78H391.308C390.095 143.78 388.621 143.823 386.888 143.91C385.155 143.91 383.421 143.953 381.688 144.04C380.041 144.04 378.611 144.04 377.398 144.04H340.608ZM589.367 59.02C589.367 67.34 587.764 74.7067 584.557 81.12C581.437 87.5333 577.407 92.9067 572.467 97.24C567.614 101.487 562.587 104.607 557.387 106.6C562.241 108.247 566.271 111.193 569.477 115.44C572.684 119.687 575.284 124.627 577.277 130.26L585.597 153.4C587.071 157.647 588.847 161.373 590.927 164.58C593.094 167.7 595.521 170.343 598.207 172.51C595.781 175.89 592.097 178.707 587.157 180.96C582.217 183.127 577.147 184.21 571.947 184.21C564.754 184.21 559.511 182.303 556.217 178.49C553.011 174.59 550.064 168.827 547.377 161.2L537.497 132.99C535.937 128.31 533.554 124.323 530.347 121.03C527.227 117.65 522.114 115.96 515.007 115.96H486.667V86.19C490.047 86.0167 494.207 85.8433 499.147 85.67C504.174 85.4967 508.941 85.3667 513.447 85.28C517.954 85.1067 521.247 85.02 523.327 85.02C530.174 85.02 535.417 83.8067 539.057 81.38C542.784 78.8667 545.341 75.6167 546.727 71.63C548.114 67.6433 548.807 63.44 548.807 59.02C548.807 54.34 548.114 50.05 546.727 46.15C545.341 42.25 542.784 39.13 539.057 36.79C535.417 34.3633 530.174 33.15 523.327 33.15C521.507 33.15 519.471 33.15 517.217 33.15C514.964 33.15 512.624 33.15 510.197 33.15C507.771 33.0633 505.301 32.9767 502.787 32.89V182C499.494 182.607 496.071 182.997 492.517 183.17C488.964 183.343 485.801 183.43 483.027 183.43C480.601 183.43 477.524 183.343 473.797 183.17C470.071 182.997 466.604 182.607 463.397 182V5.71999L465.217 4.02999C476.137 3.76999 486.667 3.55332 496.807 3.37999C506.947 3.11999 516.871 2.98999 526.577 2.98999C538.624 2.98999 549.371 4.98332 558.817 8.96999C568.264 12.87 575.717 18.98 581.177 27.3C586.637 35.5333 589.367 46.1067 589.367 59.02ZM622.85 4.41999C626.057 3.81333 629.567 3.42333 633.38 3.24998C637.194 3.07665 640.314 2.98999 642.74 2.98999C645.427 2.98999 648.59 3.07665 652.23 3.24998C655.957 3.42333 659.424 3.81333 662.63 4.41999V182C659.424 182.607 655.957 182.997 652.23 183.17C648.59 183.343 645.427 183.43 642.74 183.43C640.314 183.43 637.194 183.343 633.38 183.17C629.567 182.997 626.057 182.607 622.85 182V4.41999ZM761.04 172.25C758.44 176.063 754.714 179.01 749.86 181.09C745.007 183.17 739.937 184.21 734.65 184.21C727.457 184.21 722.214 182.347 718.92 178.62C715.714 174.807 712.854 169.087 710.34 161.46L700.07 129.87C697.297 121.463 694.004 115.527 690.19 112.06C686.377 108.507 681.264 106.73 674.85 106.73C671.124 106.73 666.444 106.903 660.81 107.25C655.264 107.597 649.154 108.117 642.48 108.81V84.37H693.18C702.887 84.37 710.514 85.7567 716.06 88.53C721.694 91.2167 726.027 94.9 729.06 99.58C732.094 104.26 734.607 109.59 736.6 115.57L747.78 148.59C750.294 155.87 752.374 160.983 754.02 163.93C755.754 166.79 758.094 169.563 761.04 172.25ZM707.61 17.03C710.124 12.2633 712.767 8.75332 715.54 6.5C718.314 4.15999 722.604 2.98999 728.41 2.98999C731.617 2.98999 735.387 3.11999 739.72 3.37999C744.054 3.55332 748.17 3.81332 752.07 4.16L754.28 6.88998L721.65 67.6C716.884 76.6133 710.774 83.72 703.32 88.92C695.954 94.0333 686.16 96.59 673.94 96.59H642.48V74.23C647.074 74.0567 651.71 73.9267 656.39 73.84C661.157 73.7533 665.794 73.6667 670.3 73.58C673.507 73.58 675.76 73.0167 677.06 71.89C678.447 70.6767 680.007 68.38 681.74 65L707.61 17.03ZM822.839 182.65H806.069C799.049 182.65 793.459 180.613 789.299 176.54C785.139 172.38 783.059 166.66 783.059 159.38V4.55L784.879 2.72999H799.439C807.152 2.72999 812.959 4.72332 816.859 8.70999C820.846 12.6967 822.839 19.11 822.839 27.95V182.65ZM893.039 148.46C893.039 161.113 891.002 169.997 886.929 175.11C882.856 180.137 875.922 182.65 866.129 182.65H806.069L784.879 153.92C795.799 152.013 806.632 150.627 817.379 149.76C828.212 148.893 838.092 148.46 847.019 148.46H893.039ZM919.041 4.41999C922.161 3.81333 925.628 3.42333 929.441 3.24998C933.341 3.07665 936.504 2.98999 938.931 2.98999C941.618 2.98999 944.781 3.07665 948.421 3.24998C952.148 3.42333 955.614 3.81333 958.821 4.41999V182C955.614 182.607 952.148 182.997 948.421 183.17C944.781 183.343 941.618 183.43 938.931 183.43C936.504 183.43 933.341 183.343 929.441 183.17C925.628 182.997 922.161 182.607 919.041 182V4.41999ZM999.647 5.06999C1002.77 4.37666 1006.8 3.85666 1011.74 3.51C1016.76 3.16332 1020.58 2.98999 1023.18 2.98999C1025.78 2.98999 1029.2 3.07665 1033.45 3.24998C1037.69 3.42333 1041.94 3.81333 1046.19 4.41999L1036.18 49.66L1033.45 50.44C1034.14 57.6333 1034.7 65.78 1035.14 74.88C1035.57 83.8933 1035.92 92.95 1036.18 102.05C1036.44 111.063 1036.57 119.123 1036.57 126.23V182C1033.36 182.607 1030.15 182.997 1026.95 183.17C1023.83 183.343 1021.01 183.43 1018.5 183.43C1016.16 183.43 1013.21 183.343 1009.66 183.17C1006.1 182.997 1002.77 182.607 999.647 182V5.06999ZM1049.31 86.71C1046.36 80.0367 1043.63 73.5367 1041.12 67.21C1038.6 60.7967 1036.39 55.0767 1034.49 50.05L1016.16 28.73L1046.19 4.41999L1088.31 99.45C1091.6 106.99 1094.68 114.227 1097.54 121.16C1100.4 128.007 1102.82 133.857 1104.82 138.71L1124.84 160.42L1092.34 182L1049.31 86.71ZM1139.4 4.55V181.35C1136.19 182.043 1132.07 182.563 1127.05 182.91C1122.02 183.257 1118.16 183.43 1115.48 183.43C1112.79 183.43 1109.32 183.343 1105.08 183.17C1100.92 182.997 1096.67 182.607 1092.34 182L1102.87 139.1L1105.73 138.19C1105.03 130.303 1104.47 121.68 1104.04 112.32C1103.6 102.96 1103.26 93.9467 1103 85.28C1102.82 76.5267 1102.74 69.16 1102.74 63.18V26.78C1102.74 17.94 1104.51 11.7433 1108.07 8.19C1111.62 4.54999 1117.21 2.72999 1124.84 2.72999H1137.58L1139.4 4.55ZM1314.99 19.24C1314.56 24.8733 1312.48 30.42 1308.75 35.88C1305.11 41.2533 1301.25 45.24 1297.18 47.84C1290.85 43.5067 1283.92 40.04 1276.38 37.44C1268.84 34.84 1261.34 33.54 1253.89 33.54C1245.05 33.54 1237.34 35.6633 1230.75 39.91C1224.16 44.07 1219.05 50.6567 1215.41 59.67C1211.86 68.5967 1210.08 80.2533 1210.08 94.64C1210.08 115.267 1213.89 130.39 1221.52 140.01C1229.23 149.63 1240.28 154.44 1254.67 154.44C1263.16 154.44 1270.88 153.66 1277.81 152.1C1284.74 150.453 1290.38 148.937 1294.71 147.55L1315.51 174.98C1310.48 176.713 1304.46 178.403 1297.44 180.05C1290.42 181.697 1282.71 183.04 1274.3 184.08C1265.89 185.207 1257.05 185.77 1247.78 185.77C1234.35 185.77 1222.69 183.603 1212.81 179.27C1203.02 174.937 1194.91 168.783 1188.5 160.81C1182.09 152.75 1177.32 143.13 1174.2 131.95C1171.08 120.683 1169.52 108.16 1169.52 94.38C1169.52 78.52 1171.82 64.74 1176.41 53.04C1181 41.2533 1187.2 31.5033 1195 23.79C1202.8 15.99 1211.6 10.1833 1221.39 6.36999C1231.18 2.55665 1241.28 0.649987 1251.68 0.649987C1263.47 0.649987 1274.78 2.38332 1285.61 5.85C1296.53 9.22999 1306.32 13.6933 1314.99 19.24ZM1278.2 133.12C1278.2 126.967 1278.42 120.553 1278.85 113.88C1279.28 107.207 1280.28 101.097 1281.84 95.55L1315.51 106.73V174.98L1278.2 175.5V133.12ZM1289.12 82.16C1299.09 82.16 1305.98 84.4567 1309.79 89.05C1313.6 93.5567 1315.51 99.45 1315.51 106.73V115.31H1264.68C1260.52 115.31 1257.01 114.79 1254.15 113.75C1251.29 112.71 1249.12 110.977 1247.65 108.55C1246.26 106.123 1245.57 102.83 1245.57 98.67C1245.57 95.9833 1245.83 93.1667 1246.35 90.22C1246.96 87.2733 1247.65 84.5867 1248.43 82.16H1289.12Z" fill="#D00031"/>
</g>
<defs>
<filter id="filter0_i_48_27" x="0.916138" y="0.649979" width="1314.59" height="189.12" filterUnits="userSpaceOnUse" color-interpolation-filters="sRGB">
<feFlood flood-opacity="0" result="BackgroundImageFix"/>
<feBlend mode="normal" in="SourceGraphic" in2="BackgroundImageFix" result="shape"/>
<feColorMatrix in="SourceAlpha" type="matrix" values="0 0 0 0 0 0 0 0 0 0 0 0 0 0 0 0 0 0 127 0" result="hardAlpha"/>
<feOffset dy="4"/>
<feGaussianBlur stdDeviation="2"/>
<feComposite in2="hardAlpha" operator="arithmetic" k2="-1" k3="1"/>
<feColorMatrix type="matrix" values="0 0 0 0 0 0 0 0 0 0 0 0 0 0 0 0 0 0 0.25 0"/>
<feBlend mode="normal" in2="shape" result="effect1_innerShadow_48_27"/>
</filter>
</defs>
</svg>
