<svg width="1334" height="353" viewBox="0 0 1334 353" fill="none" xmlns="http://www.w3.org/2000/svg">
<g filter="url(#filter0_i_48_29)">
<path d="M4.91609 228.53C5.43609 222.897 7.16943 217.35 10.1161 211.89C13.1494 206.43 16.5728 202.053 20.3861 198.76C27.7528 203.18 36.0728 207.123 45.3461 210.59C54.6194 214.057 63.8494 215.79 73.0361 215.79C81.0094 215.79 86.8161 213.927 90.4561 210.2C94.0961 206.387 95.9161 202.183 95.9161 197.59C95.9161 194.297 94.8328 190.83 92.6661 187.19C90.5861 183.463 85.8628 180.083 78.4961 177.05L47.1661 163.92C36.4194 159.413 27.5361 153.433 20.5161 145.98C13.5828 138.527 10.1161 128.647 10.1161 116.34C10.1161 105.68 12.8894 96.32 18.4361 88.26C23.9828 80.2 31.4794 73.9167 40.9261 69.41C50.4594 64.9033 61.0761 62.65 72.7761 62.65C84.9094 62.65 96.3061 64.21 106.966 67.33C117.626 70.45 126.336 73.7867 133.096 77.34C132.749 82.9733 131.363 88.4767 128.936 93.85C126.509 99.1367 123.389 103.557 119.576 107.11C112.903 103.903 105.189 101 96.4361 98.4C87.6828 95.8 79.8394 94.5 72.9061 94.5C65.1928 94.5 59.5594 96.2767 56.0061 99.83C52.5394 103.383 50.8061 107.153 50.8061 111.14C50.8061 114.78 52.0194 117.987 54.4461 120.76C56.9594 123.447 61.1194 126.003 66.9261 128.43L98.7761 141.69C107.009 145.07 114.029 149.317 119.836 154.43C125.729 159.457 130.193 165.22 133.226 171.72C136.346 178.133 137.906 185.11 137.906 192.65C137.906 203.05 135.393 212.41 130.366 220.73C125.426 229.05 117.929 235.637 107.876 240.49C97.9094 245.343 85.3861 247.77 70.3061 247.77C59.7328 247.77 48.5528 246.123 36.7661 242.83C25.0661 239.45 14.4494 234.683 4.91609 228.53ZM289.783 126.22C289.783 139.653 287.053 150.92 281.593 160.02C276.219 169.12 268.766 175.967 259.233 180.56C249.786 185.153 238.953 187.45 226.733 187.45H188.513V158.2C190.939 158.027 194.579 157.853 199.433 157.68C204.286 157.507 209.053 157.377 213.733 157.29C218.499 157.117 221.793 157.03 223.613 157.03C230.806 157.03 236.223 155.383 239.863 152.09C243.503 148.71 245.973 144.637 247.273 139.87C248.573 135.017 249.223 130.467 249.223 126.22C249.223 121.973 248.573 117.51 247.273 112.83C245.973 108.063 243.503 103.99 239.863 100.61C236.223 97.23 230.806 95.54 223.613 95.54C220.839 95.54 217.979 95.54 215.033 95.54C212.086 95.4533 208.836 95.3667 205.283 95.28V244C202.076 244.607 198.609 244.997 194.883 245.17C191.243 245.343 188.079 245.43 185.393 245.43C182.966 245.43 179.846 245.343 176.033 245.17C172.219 244.997 168.709 244.607 165.503 244V67.72L167.323 66.03C178.243 65.77 188.426 65.5533 197.873 65.38C207.406 65.12 217.026 64.99 226.733 64.99C238.953 64.99 249.786 67.2 259.233 71.62C268.766 76.04 276.219 82.8 281.593 91.9C287.053 100.913 289.783 112.353 289.783 126.22ZM342.268 66.42C345.475 65.9867 349.288 65.64 353.708 65.38C358.128 65.12 361.985 64.99 365.278 64.99C368.485 64.99 372.298 65.12 376.718 65.38C381.225 65.64 385.038 66.0733 388.158 66.68L444.448 241.4C441.675 242.96 438.121 244.13 433.788 244.91C429.455 245.777 425.381 246.21 421.568 246.21C415.328 246.21 410.431 244.78 406.878 241.92C403.325 238.973 400.335 233.253 397.908 224.76L378.018 155.47C375.938 148.103 373.555 139.61 370.868 129.99C368.268 120.37 365.928 111.357 363.848 102.95H362.288C360.988 109.97 359.081 118.03 356.568 127.13C354.141 136.143 351.931 144.03 349.938 150.79L322.118 244.26C319.691 244.867 317.048 245.257 314.188 245.43C311.328 245.603 308.381 245.69 305.348 245.69C302.315 245.69 298.935 245.473 295.208 245.04C291.481 244.607 288.448 243.957 286.108 243.09L284.678 241.01L342.268 66.42ZM344.608 206.04C343.395 206.04 341.921 206.04 340.188 206.04C338.455 205.953 336.721 205.91 334.988 205.91C333.341 205.823 331.911 205.78 330.698 205.78H310.028L322.248 174.71H340.318C341.531 174.71 342.961 174.71 344.608 174.71C346.255 174.623 347.901 174.58 349.548 174.58C351.195 174.493 352.581 174.45 353.708 174.45H373.598C374.811 174.45 376.241 174.493 377.888 174.58C379.535 174.58 381.181 174.623 382.828 174.71C384.475 174.71 385.905 174.71 387.118 174.71H405.838L415.848 205.78H395.308C394.095 205.78 392.621 205.823 390.888 205.91C389.155 205.91 387.421 205.953 385.688 206.04C384.041 206.04 382.611 206.04 381.398 206.04H344.608ZM593.367 121.02C593.367 129.34 591.764 136.707 588.557 143.12C585.437 149.533 581.407 154.907 576.467 159.24C571.614 163.487 566.587 166.607 561.387 168.6C566.241 170.247 570.271 173.193 573.477 177.44C576.684 181.687 579.284 186.627 581.277 192.26L589.597 215.4C591.071 219.647 592.847 223.373 594.927 226.58C597.094 229.7 599.521 232.343 602.207 234.51C599.781 237.89 596.097 240.707 591.157 242.96C586.217 245.127 581.147 246.21 575.947 246.21C568.754 246.21 563.511 244.303 560.217 240.49C557.011 236.59 554.064 230.827 551.377 223.2L541.497 194.99C539.937 190.31 537.554 186.323 534.347 183.03C531.227 179.65 526.114 177.96 519.007 177.96H490.667V148.19C494.047 148.017 498.207 147.843 503.147 147.67C508.174 147.497 512.941 147.367 517.447 147.28C521.954 147.107 525.247 147.02 527.327 147.02C534.174 147.02 539.417 145.807 543.057 143.38C546.784 140.867 549.341 137.617 550.727 133.63C552.114 129.643 552.807 125.44 552.807 121.02C552.807 116.34 552.114 112.05 550.727 108.15C549.341 104.25 546.784 101.13 543.057 98.79C539.417 96.3633 534.174 95.15 527.327 95.15C525.507 95.15 523.471 95.15 521.217 95.15C518.964 95.15 516.624 95.15 514.197 95.15C511.771 95.0633 509.301 94.9767 506.787 94.89V244C503.494 244.607 500.071 244.997 496.517 245.17C492.964 245.343 489.801 245.43 487.027 245.43C484.601 245.43 481.524 245.343 477.797 245.17C474.071 244.997 470.604 244.607 467.397 244V67.72L469.217 66.03C480.137 65.77 490.667 65.5533 500.807 65.38C510.947 65.12 520.871 64.99 530.577 64.99C542.624 64.99 553.371 66.9833 562.817 70.97C572.264 74.87 579.717 80.98 585.177 89.3C590.637 97.5333 593.367 108.107 593.367 121.02ZM626.85 66.42C630.057 65.8133 633.567 65.4233 637.38 65.25C641.194 65.0767 644.314 64.99 646.74 64.99C649.427 64.99 652.59 65.0767 656.23 65.25C659.957 65.4233 663.424 65.8133 666.63 66.42V244C663.424 244.607 659.957 244.997 656.23 245.17C652.59 245.343 649.427 245.43 646.74 245.43C644.314 245.43 641.194 245.343 637.38 245.17C633.567 244.997 630.057 244.607 626.85 244V66.42ZM765.04 234.25C762.44 238.063 758.714 241.01 753.86 243.09C749.007 245.17 743.937 246.21 738.65 246.21C731.457 246.21 726.214 244.347 722.92 240.62C719.714 236.807 716.854 231.087 714.34 223.46L704.07 191.87C701.297 183.463 698.004 177.527 694.19 174.06C690.377 170.507 685.264 168.73 678.85 168.73C675.124 168.73 670.444 168.903 664.81 169.25C659.264 169.597 653.154 170.117 646.48 170.81V146.37H697.18C706.887 146.37 714.514 147.757 720.06 150.53C725.694 153.217 730.027 156.9 733.06 161.58C736.094 166.26 738.607 171.59 740.6 177.57L751.78 210.59C754.294 217.87 756.374 222.983 758.02 225.93C759.754 228.79 762.094 231.563 765.04 234.25ZM711.61 79.03C714.124 74.2633 716.767 70.7533 719.54 68.5C722.314 66.16 726.604 64.99 732.41 64.99C735.617 64.99 739.387 65.12 743.72 65.38C748.054 65.5533 752.17 65.8133 756.07 66.16L758.28 68.89L725.65 129.6C720.884 138.613 714.774 145.72 707.32 150.92C699.954 156.033 690.16 158.59 677.94 158.59H646.48V136.23C651.074 136.057 655.71 135.927 660.39 135.84C665.157 135.753 669.794 135.667 674.3 135.58C677.507 135.58 679.76 135.017 681.06 133.89C682.447 132.677 684.007 130.38 685.74 127L711.61 79.03ZM826.839 244.65H810.069C803.049 244.65 797.459 242.613 793.299 238.54C789.139 234.38 787.059 228.66 787.059 221.38V66.55L788.879 64.73H803.439C811.152 64.73 816.959 66.7233 820.859 70.71C824.846 74.6967 826.839 81.11 826.839 89.95V244.65ZM897.039 210.46C897.039 223.113 895.002 231.997 890.929 237.11C886.856 242.137 879.922 244.65 870.129 244.65H810.069L788.879 215.92C799.799 214.013 810.632 212.627 821.379 211.76C832.212 210.893 842.092 210.46 851.019 210.46H897.039ZM923.041 66.42C926.161 65.8133 929.628 65.4233 933.441 65.25C937.341 65.0767 940.504 64.99 942.931 64.99C945.618 64.99 948.781 65.0767 952.421 65.25C956.148 65.4233 959.614 65.8133 962.821 66.42V244C959.614 244.607 956.148 244.997 952.421 245.17C948.781 245.343 945.618 245.43 942.931 245.43C940.504 245.43 937.341 245.343 933.441 245.17C929.628 244.997 926.161 244.607 923.041 244V66.42ZM1003.65 67.07C1006.77 66.3767 1010.8 65.8567 1015.74 65.51C1020.76 65.1633 1024.58 64.99 1027.18 64.99C1029.78 64.99 1033.2 65.0767 1037.45 65.25C1041.69 65.4233 1045.94 65.8133 1050.19 66.42L1040.18 111.66L1037.45 112.44C1038.14 119.633 1038.7 127.78 1039.14 136.88C1039.57 145.893 1039.92 154.95 1040.18 164.05C1040.44 173.063 1040.57 181.123 1040.57 188.23V244C1037.36 244.607 1034.15 244.997 1030.95 245.17C1027.83 245.343 1025.01 245.43 1022.5 245.43C1020.16 245.43 1017.21 245.343 1013.66 245.17C1010.1 244.997 1006.77 244.607 1003.65 244V67.07ZM1053.31 148.71C1050.36 142.037 1047.63 135.537 1045.12 129.21C1042.6 122.797 1040.39 117.077 1038.49 112.05L1020.16 90.73L1050.19 66.42L1092.31 161.45C1095.6 168.99 1098.68 176.227 1101.54 183.16C1104.4 190.007 1106.82 195.857 1108.82 200.71L1128.84 222.42L1096.34 244L1053.31 148.71ZM1143.4 66.55V243.35C1140.19 244.043 1136.07 244.563 1131.05 244.91C1126.02 245.257 1122.16 245.43 1119.48 245.43C1116.79 245.43 1113.32 245.343 1109.08 245.17C1104.92 244.997 1100.67 244.607 1096.34 244L1106.87 201.1L1109.73 200.19C1109.03 192.303 1108.47 183.68 1108.04 174.32C1107.6 164.96 1107.26 155.947 1107 147.28C1106.82 138.527 1106.74 131.16 1106.74 125.18V88.78C1106.74 79.94 1108.51 73.7433 1112.07 70.19C1115.62 66.55 1121.21 64.73 1128.84 64.73H1141.58L1143.4 66.55ZM1318.99 81.24C1318.56 86.8733 1316.48 92.42 1312.75 97.88C1309.11 103.253 1305.25 107.24 1301.18 109.84C1294.85 105.507 1287.92 102.04 1280.38 99.44C1272.84 96.84 1265.34 95.54 1257.89 95.54C1249.05 95.54 1241.34 97.6633 1234.75 101.91C1228.16 106.07 1223.05 112.657 1219.41 121.67C1215.86 130.597 1214.08 142.253 1214.08 156.64C1214.08 177.267 1217.89 192.39 1225.52 202.01C1233.23 211.63 1244.28 216.44 1258.67 216.44C1267.16 216.44 1274.88 215.66 1281.81 214.1C1288.74 212.453 1294.38 210.937 1298.71 209.55L1319.51 236.98C1314.48 238.713 1308.46 240.403 1301.44 242.05C1294.42 243.697 1286.71 245.04 1278.3 246.08C1269.89 247.207 1261.05 247.77 1251.78 247.77C1238.35 247.77 1226.69 245.603 1216.81 241.27C1207.02 236.937 1198.91 230.783 1192.5 222.81C1186.09 214.75 1181.32 205.13 1178.2 193.95C1175.08 182.683 1173.52 170.16 1173.52 156.38C1173.52 140.52 1175.82 126.74 1180.41 115.04C1185 103.253 1191.2 93.5033 1199 85.79C1206.8 77.99 1215.6 72.1833 1225.39 68.37C1235.18 64.5567 1245.28 62.65 1255.68 62.65C1267.47 62.65 1278.78 64.3833 1289.61 67.85C1300.53 71.23 1310.32 75.6933 1318.99 81.24ZM1282.2 195.12C1282.2 188.967 1282.42 182.553 1282.85 175.88C1283.28 169.207 1284.28 163.097 1285.84 157.55L1319.51 168.73V236.98L1282.2 237.5V195.12ZM1293.12 144.16C1303.09 144.16 1309.98 146.457 1313.79 151.05C1317.6 155.557 1319.51 161.45 1319.51 168.73V177.31H1268.68C1264.52 177.31 1261.01 176.79 1258.15 175.75C1255.29 174.71 1253.12 172.977 1251.65 170.55C1250.26 168.123 1249.57 164.83 1249.57 160.67C1249.57 157.983 1249.83 155.167 1250.35 152.22C1250.96 149.273 1251.65 146.587 1252.43 144.16H1293.12Z" fill="#D00031"/>
</g>
<g filter="url(#filter1_i_48_29)">
<path d="M1095.84 274.44C1097.12 274.227 1098.53 274.08 1100.08 274C1101.63 273.893 1102.96 273.84 1104.08 273.84C1105.17 273.84 1106.4 273.893 1107.76 274C1109.15 274.08 1110.49 274.227 1111.8 274.44L1116.92 294.76C1117.05 295.267 1117.24 296.107 1117.48 297.28C1117.75 298.453 1118.04 299.773 1118.36 301.24C1118.68 302.68 1118.97 304.107 1119.24 305.52C1119.53 306.907 1119.76 308.08 1119.92 309.04H1120.44C1120.6 308.08 1120.83 306.907 1121.12 305.52C1121.41 304.107 1121.71 302.68 1122 301.24C1122.32 299.773 1122.61 298.453 1122.88 297.28C1123.17 296.107 1123.37 295.267 1123.48 294.76L1128.6 274.44C1129.91 274.227 1131.24 274.08 1132.6 274C1133.99 273.893 1135.23 273.84 1136.32 273.84C1137.41 273.84 1138.73 273.893 1140.28 274C1141.83 274.08 1143.25 274.227 1144.56 274.44L1148.8 328.84C1147.92 329.053 1146.91 329.2 1145.76 329.28C1144.64 329.387 1143.59 329.44 1142.6 329.44C1141.69 329.44 1140.79 329.413 1139.88 329.36C1139 329.307 1138.13 329.213 1137.28 329.08L1135.96 305.84C1135.85 304 1135.75 302.013 1135.64 299.88C1135.56 297.72 1135.48 295.587 1135.4 293.48C1135.35 291.347 1135.32 289.427 1135.32 287.72H1134.76L1126.48 320.92C1125.57 321.053 1124.51 321.16 1123.28 321.24C1122.05 321.32 1121.01 321.36 1120.16 321.36C1119.36 321.36 1118.35 321.32 1117.12 321.24C1115.89 321.16 1114.83 321.053 1113.92 320.92L1105.6 287.72H1105.08C1105.08 289.427 1105.04 291.347 1104.96 293.48C1104.88 295.587 1104.8 297.72 1104.72 299.88C1104.64 302.013 1104.55 304 1104.44 305.84L1103.12 329.08C1102.24 329.213 1101.36 329.307 1100.48 329.36C1099.6 329.413 1098.69 329.44 1097.76 329.44C1096.77 329.44 1095.71 329.387 1094.56 329.28C1093.44 329.2 1092.45 329.053 1091.6 328.84L1095.84 274.44ZM1155.97 318.08C1155.97 314.907 1156.7 312.307 1158.17 310.28C1159.66 308.227 1161.61 306.72 1164.01 305.76C1166.41 304.773 1168.98 304.28 1171.73 304.28C1172.98 304.28 1174.53 304.32 1176.37 304.4C1178.21 304.453 1179.86 304.627 1181.33 304.92V312.52C1180.13 312.253 1178.71 312.093 1177.09 312.04C1175.46 311.987 1174.07 311.96 1172.93 311.96C1171.06 311.96 1169.7 312.453 1168.85 313.44C1167.99 314.427 1167.57 315.707 1167.57 317.28C1167.57 318.427 1167.91 319.387 1168.61 320.16C1169.3 320.933 1170.26 321.32 1171.49 321.32C1173.14 321.32 1174.83 320.733 1176.57 319.56C1178.3 318.387 1179.75 316.747 1180.93 314.64L1182.61 322.36C1181.57 323.587 1180.37 324.8 1179.01 326C1177.67 327.173 1176.11 328.16 1174.33 328.96C1172.54 329.76 1170.46 330.16 1168.09 330.16C1165.34 330.16 1163.07 329.56 1161.29 328.36C1159.5 327.133 1158.17 325.6 1157.29 323.76C1156.41 321.893 1155.97 320 1155.97 318.08ZM1191.85 323.52C1191.61 324.587 1191.11 325.733 1190.37 326.96C1189.65 328.16 1188.9 329.053 1188.13 329.64C1185.86 329.56 1183.99 329.013 1182.53 328C1181.09 326.987 1179.98 325.76 1179.21 324.32C1178.43 322.853 1177.94 321.413 1177.73 320V302.8C1177.73 300.987 1177.27 299.64 1176.37 298.76C1175.49 297.88 1174.13 297.44 1172.29 297.44C1170.53 297.44 1168.62 297.72 1166.57 298.28C1164.54 298.813 1162.49 299.4 1160.41 300.04C1159.55 299.08 1158.87 297.827 1158.37 296.28C1157.89 294.733 1157.58 293.227 1157.45 291.76C1159.21 291.04 1161.15 290.413 1163.29 289.88C1165.45 289.347 1167.59 288.933 1169.73 288.64C1171.86 288.347 1173.79 288.2 1175.53 288.2C1177.9 288.2 1180.15 288.64 1182.29 289.52C1184.45 290.4 1186.21 291.84 1187.57 293.84C1188.93 295.813 1189.61 298.467 1189.61 301.8V318.08C1189.61 319.307 1189.78 320.373 1190.13 321.28C1190.47 322.16 1191.05 322.907 1191.85 323.52ZM1204.46 288.6C1206.76 288.6 1208.48 289.373 1209.62 290.92C1210.77 292.467 1211.34 294.573 1211.34 297.24V329C1209.58 329.293 1207.6 329.44 1205.38 329.44C1203.22 329.44 1201.22 329.293 1199.38 329V289.16L1199.94 288.6H1204.46ZM1233.38 319.2C1233.38 320.747 1233.53 322.2 1233.82 323.56C1234.12 324.893 1234.61 326.067 1235.3 327.08C1234.42 327.8 1233.33 328.4 1232.02 328.88C1230.74 329.36 1229.36 329.6 1227.86 329.6C1225.46 329.6 1223.8 328.973 1222.86 327.72C1221.93 326.44 1221.46 324.613 1221.46 322.24V304.72C1221.46 302.8 1221.21 301.387 1220.7 300.48C1220.2 299.573 1219.24 299.12 1217.82 299.12C1216.94 299.12 1215.92 299.36 1214.74 299.84C1213.6 300.293 1212.46 301.04 1211.34 302.08C1210.25 303.093 1209.29 304.44 1208.46 306.12V295.6C1210.33 293.733 1212.38 292.067 1214.62 290.6C1216.89 289.133 1219.44 288.4 1222.26 288.4C1224.72 288.4 1226.77 289.013 1228.42 290.24C1230.08 291.44 1231.32 293.093 1232.14 295.2C1232.97 297.307 1233.38 299.733 1233.38 302.48V319.2ZM1278.37 294.6C1277.68 295.107 1277.13 295.907 1276.73 297C1276.33 298.093 1276.13 299.307 1276.13 300.64V322.08C1276.13 325.733 1275.96 328.747 1275.61 331.12C1275.29 333.52 1274.83 335.48 1274.21 337C1273.6 338.52 1272.88 339.813 1272.05 340.88C1270.51 342.827 1268.45 344.28 1265.89 345.24C1263.33 346.2 1260.47 346.68 1257.29 346.68C1254.79 346.68 1252.19 346.427 1249.49 345.92C1246.83 345.44 1244.47 344.8 1242.41 344C1242.41 342.587 1242.69 341.04 1243.25 339.36C1243.81 337.68 1244.52 336.347 1245.37 335.36C1247.08 336.107 1248.87 336.693 1250.73 337.12C1252.63 337.573 1254.44 337.8 1256.17 337.8C1258.23 337.8 1259.85 337.44 1261.05 336.72C1262.28 336 1263.16 335 1263.69 333.72C1264.23 332.44 1264.49 330.96 1264.49 329.28V300.32C1264.49 297.093 1265.33 294.347 1267.01 292.08C1268.72 289.813 1271.27 288.613 1274.65 288.48C1275.43 289.067 1276.2 289.973 1276.97 291.2C1277.75 292.4 1278.21 293.533 1278.37 294.6ZM1240.85 309.16C1240.85 304.547 1241.59 300.667 1243.05 297.52C1244.52 294.373 1246.47 292 1248.89 290.4C1251.32 288.773 1253.96 287.96 1256.81 287.96C1259.37 287.96 1261.56 288.373 1263.37 289.2C1265.19 290.027 1266.69 291.053 1267.89 292.28C1269.12 293.48 1270.08 294.667 1270.77 295.84L1268.85 305.6C1267.33 302.8 1265.67 300.653 1263.85 299.16C1262.04 297.64 1260.37 296.88 1258.85 296.88C1257.55 296.88 1256.45 297.373 1255.57 298.36C1254.72 299.32 1254.08 300.72 1253.65 302.56C1253.25 304.4 1253.05 306.613 1253.05 309.2C1253.05 313.067 1253.53 315.867 1254.49 317.6C1255.48 319.307 1256.69 320.16 1258.13 320.16C1259.81 320.16 1261.44 319.6 1263.01 318.48C1264.61 317.333 1265.93 315.68 1266.97 313.52L1268.69 321.92C1267.84 323.387 1266.72 324.707 1265.33 325.88C1263.95 327.053 1262.39 328 1260.65 328.72C1258.92 329.413 1257.09 329.76 1255.17 329.76C1251.95 329.76 1249.27 328.893 1247.13 327.16C1245.03 325.4 1243.45 322.973 1242.41 319.88C1241.37 316.787 1240.85 313.213 1240.85 309.16ZM1320.14 309.08C1320.14 313.32 1319.45 317.027 1318.06 320.2C1316.68 323.347 1314.62 325.8 1311.9 327.56C1309.18 329.293 1305.82 330.16 1301.82 330.16C1297.82 330.16 1294.46 329.28 1291.74 327.52C1289.02 325.76 1286.97 323.307 1285.58 320.16C1284.22 316.987 1283.54 313.293 1283.54 309.08C1283.54 304.813 1284.24 301.107 1285.62 297.96C1287.01 294.787 1289.06 292.333 1291.78 290.6C1294.5 288.84 1297.85 287.96 1301.82 287.96C1305.85 287.96 1309.22 288.84 1311.94 290.6C1314.66 292.36 1316.7 294.827 1318.06 298C1319.45 301.147 1320.14 304.84 1320.14 309.08ZM1295.78 309.08C1295.78 311.32 1295.93 313.36 1296.22 315.2C1296.52 317.04 1297.09 318.507 1297.94 319.6C1298.82 320.693 1300.13 321.24 1301.86 321.24C1303.6 321.24 1304.89 320.693 1305.74 319.6C1306.6 318.507 1307.17 317.04 1307.46 315.2C1307.76 313.36 1307.9 311.32 1307.9 309.08C1307.9 306.84 1307.76 304.8 1307.46 302.96C1307.17 301.093 1306.6 299.613 1305.74 298.52C1304.89 297.427 1303.6 296.88 1301.86 296.88C1300.13 296.88 1298.82 297.427 1297.94 298.52C1297.09 299.613 1296.52 301.093 1296.22 302.96C1295.93 304.8 1295.78 306.84 1295.78 309.08Z" fill="#D00031"/>
</g>
<defs>
<filter id="filter0_i_48_29" x="4.91614" y="62.65" width="1314.59" height="189.12" filterUnits="userSpaceOnUse" color-interpolation-filters="sRGB">
<feFlood flood-opacity="0" result="BackgroundImageFix"/>
<feBlend mode="normal" in="SourceGraphic" in2="BackgroundImageFix" result="shape"/>
<feColorMatrix in="SourceAlpha" type="matrix" values="0 0 0 0 0 0 0 0 0 0 0 0 0 0 0 0 0 0 127 0" result="hardAlpha"/>
<feOffset dy="4"/>
<feGaussianBlur stdDeviation="2"/>
<feComposite in2="hardAlpha" operator="arithmetic" k2="-1" k3="1"/>
<feColorMatrix type="matrix" values="0 0 0 0 0 0 0 0 0 0 0 0 0 0 0 0 0 0 0.25 0"/>
<feBlend mode="normal" in2="shape" result="effect1_innerShadow_48_29"/>
</filter>
<filter id="filter1_i_48_29" x="1091.6" y="273.84" width="228.544" height="76.84" filterUnits="userSpaceOnUse" color-interpolation-filters="sRGB">
<feFlood flood-opacity="0" result="BackgroundImageFix"/>
<feBlend mode="normal" in="SourceGraphic" in2="BackgroundImageFix" result="shape"/>
<feColorMatrix in="SourceAlpha" type="matrix" values="0 0 0 0 0 0 0 0 0 0 0 0 0 0 0 0 0 0 127 0" result="hardAlpha"/>
<feOffset dy="4"/>
<feGaussianBlur stdDeviation="2"/>
<feComposite in2="hardAlpha" operator="arithmetic" k2="-1" k3="1"/>
<feColorMatrix type="matrix" values="0 0 0 0 0 0 0 0 0 0 0 0 0 0 0 0 0 0 0.25 0"/>
<feBlend mode="normal" in2="shape" result="effect1_innerShadow_48_29"/>
</filter>
</defs>
</svg>
